<svg xmlns="http://www.w3.org/2000/svg" viewBox="0 0 124 130.36"><defs><style>.cls-1{fill:#fff;}.cls-2{fill:#241f21;}</style></defs><g id="Layer_2" data-name="Layer 2"><g id="Layer_1-2" data-name="Layer 1"><ellipse class="cls-1" cx="61.72" cy="63.23" rx="61.11" ry="62.4"/><path class="cls-2" d="M124,62h0V61h0A62,62,0,0,0,0,61H0V72.15c0,32.1,27.81,58.21,62,58.21s62-26.11,62-58.21V62ZM62,2A60,60,0,1,1,2,62,60.05,60.05,0,0,1,62,2Z"/><path class="cls-2" d="M62.23,32.36a.24.24,0,0,0-.46,0L56.5,51.91a.21.21,0,0,0,.1.25.22.22,0,0,0,.27,0l4.73-3.76a.67.67,0,0,1,.4-.14.61.61,0,0,1,.4.14l4.73,3.76a.22.22,0,0,0,.27,0,.21.21,0,0,0,.1-.25Z"/><path class="cls-2" d="M67.4,74.29a.22.22,0,0,0-.27,0L62.4,78.07a.66.66,0,0,1-.8,0l-4.74-3.76a.22.22,0,0,0-.14-.06.28.28,0,0,0-.13,0,.25.25,0,0,0-.1.26l5.28,19.54a.23.23,0,0,0,.23.18.23.23,0,0,0,.22-.18L67.5,74.55A.23.23,0,0,0,67.4,74.29Z"/><path class="cls-2" d="M92.87,63.45a.21.21,0,0,0,.17-.22.23.23,0,0,0-.17-.23L73.32,57.72h-.06a.23.23,0,0,0-.19.11.21.21,0,0,0,0,.27l3.76,4.74a.62.62,0,0,1,0,.79l-3.76,4.74a.22.22,0,0,0,0,.27.21.21,0,0,0,.25.1Z"/><path class="cls-2" d="M47.16,63.62a.65.65,0,0,1,0-.79l3.76-4.74a.22.22,0,0,0,0-.27.25.25,0,0,0-.26-.1L31.13,63a.23.23,0,0,0-.17.23.22.22,0,0,0,.17.22l19.55,5.28a.21.21,0,0,0,.25-.1.21.21,0,0,0,0-.27Z"/><path class="cls-2" d="M39.52,20.31c.55-.3,1.11-.58,1.68-.86l-3.09-5.07a.54.54,0,0,0-1,.5Z"/><path class="cls-2" d="M14.65,62.58c0-.2,0-.39,0-.58,0-.42,0-.85,0-1.27L9,61.11A.55.55,0,0,0,9,62.2Z"/><path class="cls-2" d="M34.09,23.74c.5-.37,1-.73,1.54-1.08L31.9,18.07a.54.54,0,0,0-.89.62Z"/><path class="cls-2" d="M51.51,15.81c.61-.14,1.23-.26,1.86-.38L51.76,9.68a.55.55,0,0,0-1.07.22Z"/><path class="cls-2" d="M45.36,17.65c.59-.22,1.18-.43,1.78-.63l-2.37-5.46a.54.54,0,0,0-1,.36Z"/><path class="cls-2" d="M9.46,55,15,56.12q.12-.91.27-1.83L9.6,53.9A.54.54,0,0,0,9.46,55Z"/><path class="cls-2" d="M59.74,14.7l-.81-5.93a.54.54,0,0,0-1.08.08v6C58.48,14.77,59.11,14.73,59.74,14.7Z"/><path class="cls-2" d="M24.85,32.63c.38-.49.78-1,1.19-1.45L21.26,27.8a.54.54,0,0,0-.68.84Z"/><path class="cls-2" d="M10.85,47.88l5.38,1.91c.16-.6.33-1.2.52-1.79l-5.6-1.16A.54.54,0,0,0,10.85,47.88Z"/><path class="cls-2" d="M16.47,34.59l4.74,3.35c.31-.54.64-1.07,1-1.6L17,33.67A.54.54,0,0,0,16.47,34.59Z"/><path class="cls-2" d="M13.21,41.05l5.1,2.64c.24-.57.5-1.14.76-1.71l-5.43-1.93A.55.55,0,0,0,13.21,41.05Z"/><path class="cls-2" d="M29.17,27.87c.45-.43.91-.86,1.38-1.28l-4.3-4a.54.54,0,0,0-.79.74Z"/><path class="cls-2" d="M105.69,43.69l5.1-2.64a.55.55,0,0,0-.43-1L104.93,42C105.19,42.55,105.45,43.12,105.69,43.69Z"/><path class="cls-2" d="M99.15,32.63l4.28-4a.54.54,0,0,0-.69-.84L98,31.18C98.37,31.66,98.77,32.14,99.15,32.63Z"/><path class="cls-2" d="M102.79,37.94l4.74-3.35a.54.54,0,0,0-.56-.92l-5.16,2.67C102.15,36.87,102.48,37.4,102.79,37.94Z"/><path class="cls-2" d="M109,56.13,114.54,55a.55.55,0,0,0-.14-1.08l-5.67.39C108.83,54.9,108.92,55.51,109,56.13Z"/><path class="cls-2" d="M107.77,49.79l5.38-1.91a.54.54,0,0,0-.3-1L107.26,48C107.44,48.59,107.61,49.19,107.77,49.79Z"/><path class="cls-2" d="M89.92,23.74l3.07-5a.54.54,0,0,0-.89-.62l-3.73,4.59C88.89,23,89.41,23.37,89.92,23.74Z"/><path class="cls-2" d="M78.64,17.65l1.61-5.72a.54.54,0,0,0-1-.37L76.86,17C77.46,17.22,78.05,17.43,78.64,17.65Z"/><path class="cls-2" d="M72.5,15.81l.81-5.91a.54.54,0,0,0-1.06-.22l-1.61,5.75C71.26,15.55,71.88,15.67,72.5,15.81Z"/><path class="cls-2" d="M84.48,20.31l2.37-5.44a.54.54,0,0,0-1-.5L82.8,19.44C83.37,19.73,83.93,20,84.48,20.31Z"/><path class="cls-2" d="M94.83,27.87l3.72-4.56a.54.54,0,0,0-.79-.74l-4.31,4C93.92,27,94.38,27.44,94.83,27.87Z"/><path class="cls-2" d="M66.16,14.82v-6a.54.54,0,0,0-1.08-.07l-.81,5.92Z"/><path class="cls-2" d="M78.82,106.28c-.56.21-1.13.42-1.7.61l2.1,4.85a.54.54,0,0,0,1-.36Z"/><path class="cls-2" d="M64.36,109.3l.71,5.23a.55.55,0,0,0,1.09-.08v-5.27C65.56,109.23,65,109.27,64.36,109.3Z"/><path class="cls-2" d="M95.15,95.82l-1.31,1.25,3.92,3.66a.54.54,0,0,0,.79-.74Z"/><path class="cls-2" d="M90.21,100c-.48.36-1,.71-1.48,1l3.37,4.14a.54.54,0,0,0,.89-.62Z"/><path class="cls-2" d="M84.73,103.56c-.52.28-1.06.56-1.6.83l2.76,4.54a.54.54,0,0,0,1-.5Z"/><path class="cls-2" d="M72.59,108.17l-1.77.37,1.43,5.08a.54.54,0,0,0,1.06-.22Z"/><path class="cls-2" d="M99.47,91c-.37.48-.75,1-1.14,1.42l4.41,3.11a.54.54,0,0,0,.69-.84Z"/><path class="cls-2" d="M115,61.11l-5.63-.39c0,.43,0,.85,0,1.28,0,.19,0,.38,0,.57l5.62-.38A.54.54,0,0,0,115,61.11Z"/><path class="cls-2" d="M114.54,68.33l-5.47-1.14c-.06.61-.14,1.22-.23,1.83l5.56.38A.54.54,0,0,0,114.54,68.33Z"/><path class="cls-2" d="M107.53,88.71l-4.45-3.14c-.3.52-.61,1-.94,1.56l4.83,2.5A.54.54,0,0,0,107.53,88.71Z"/><path class="cls-2" d="M110.8,82.25l-4.87-2.52c-.23.57-.47,1.13-.72,1.69l5.16,1.83A.55.55,0,0,0,110.8,82.25Z"/><path class="cls-2" d="M113.15,75.42l-5.21-1.85q-.22.89-.48,1.77l5.4,1.12A.54.54,0,0,0,113.15,75.42Z"/><path class="cls-2" d="M16.07,73.57l-5.22,1.85a.54.54,0,0,0,.3,1l5.4-1.12Q16.29,74.46,16.07,73.57Z"/><path class="cls-2" d="M20.92,85.57l-4.45,3.14a.54.54,0,0,0,.56.92l4.82-2.5Q21.37,86.37,20.92,85.57Z"/><path class="cls-2" d="M24.53,91l-4,3.7a.54.54,0,0,0,.68.84l4.41-3.12C25.28,91.91,24.9,91.44,24.53,91Z"/><path class="cls-2" d="M18.08,79.73l-4.87,2.52a.55.55,0,0,0,.43,1l5.15-1.84C18.54,80.86,18.31,80.3,18.08,79.73Z"/><path class="cls-2" d="M14.93,67.19,9.46,68.32A.55.55,0,0,0,9.6,69.4L15.16,69C15.07,68.41,15,67.8,14.93,67.19Z"/><path class="cls-2" d="M28.85,95.82,25.45,100a.54.54,0,0,0,.79.74l3.92-3.67C29.72,96.66,29.28,96.24,28.85,95.82Z"/><path class="cls-2" d="M45.18,106.28l-1.43,5.1a.54.54,0,0,0,1,.36l2.11-4.85C46.31,106.7,45.74,106.49,45.18,106.28Z"/><path class="cls-2" d="M57.85,109.18v5.27a.54.54,0,0,0,1.08.08l.72-5.23Q58.74,109.26,57.85,109.18Z"/><path class="cls-2" d="M51.41,108.17l-.72,5.22a.55.55,0,0,0,1.07.22l1.42-5.08Q52.3,108.37,51.41,108.17Z"/><path class="cls-2" d="M39.27,103.56l-2.12,4.87a.54.54,0,0,0,1,.5l2.76-4.54C40.33,104.12,39.8,103.84,39.27,103.56Z"/><path class="cls-2" d="M33.79,100,31,104.61a.54.54,0,0,0,.89.62l3.36-4.14Q34.53,100.58,33.79,100Z"/><path class="cls-2" d="M98.07,62.91a36.08,36.08,0,1,0-72.14-.11c0,.24,0,.48,0,.72h0a36.1,36.1,0,0,0,36,34.59,36.56,36.56,0,0,0,8.24-1A36.06,36.06,0,0,0,98.05,63.52h0C98.08,63.31,98.07,63.11,98.07,62.91ZM90.87,80A33.76,33.76,0,0,1,69.7,95.13a34.26,34.26,0,0,1-7.77.9,34,34,0,0,1-33-26.33A34.5,34.5,0,0,1,28,63,34,34,0,0,1,54.3,30.39a34.54,34.54,0,0,1,7.76-.89A34,34,0,0,1,96,62.89,33.75,33.75,0,0,1,90.87,80Z"/><path class="cls-2" d="M105.17,63a43.18,43.18,0,1,0-86.34-.1c0,.22,0,.43,0,.65h0a43.22,43.22,0,0,0,43.06,41.69,44,44,0,0,0,9.87-1.14,43.16,43.16,0,0,0,33.37-40.55h0C105.18,63.34,105.17,63.15,105.17,63ZM96.89,83.73A40.84,40.84,0,0,1,71.31,102a41.77,41.77,0,0,1-9.39,1.08,41.12,41.12,0,0,1-41-40.26A41.06,41.06,0,0,1,52.69,23.48a41.42,41.42,0,0,1,9.38-1.08,41.11,41.11,0,0,1,41,40.56A40.8,40.8,0,0,1,96.89,83.73Z"/><path class="cls-2" d="M68.67,61.68A6.86,6.86,0,0,0,62,56.37a7,7,0,0,0-1.57.18,6.84,6.84,0,0,0-5.28,7.06h0c0,.19,0,.18,0,.13a9.13,9.13,0,0,0,.15,1A6.83,6.83,0,0,0,62,70.08a7.36,7.36,0,0,0,1.55-.17,6.86,6.86,0,0,0,5.12-8.23Zm-11-1.16a5.09,5.09,0,0,1,3.19-2.28A5.55,5.55,0,0,1,62,58.11,5.1,5.1,0,0,1,67,62a3,3,0,0,1,0,1.36,4.77,4.77,0,0,1-.62,1.5,5.09,5.09,0,0,1-3.19,2.28,5,5,0,0,1-1.16.14,5.14,5.14,0,0,1-5-4h0A3,3,0,0,1,57,62,5,5,0,0,1,57.65,60.52Z"/><path class="cls-2" d="M46.58,43.17v6.37h2.77v2H44.41V43.17Z"/><path class="cls-2" d="M47.91,83.29h-3.5V74.94h3.26c1.89,0,2.53,1,2.53,2.22a2.1,2.1,0,0,1-.91,1.69A2.34,2.34,0,0,1,50.56,81,2.37,2.37,0,0,1,47.91,83.29Zm-1.33-6.62v1.62h.51c.78,0,1.19-.25,1.19-.81s-.26-.81-1.15-.81Zm0,3.1v1.8h.63c.91,0,1.17-.33,1.17-.88s-.39-.92-1.19-.92Z"/><path class="cls-2" d="M75.69,46.84v4.67H73.52V43.17h2.06L79,47.87v-4.7h2.17v8.34H79.12Z"/><path class="cls-2" d="M80.56,77.11a2.89,2.89,0,0,0-1.64-.45,2.46,2.46,0,1,0,0,4.91,3,3,0,0,0,1.64-.44v2.11a4,4,0,0,1-1.78.37,4.5,4.5,0,1,1,0-9,4.14,4.14,0,0,1,1.78.38Z"/></g></g></svg>