<svg xmlns="http://www.w3.org/2000/svg" xmlns:xlink="http://www.w3.org/1999/xlink" viewBox="0 0 30 30"><defs><style>.cls-1{fill:none;}.cls-2{clip-path:url(#clip-path);}.cls-3{fill:#fff;}</style><clipPath id="clip-path"><rect class="cls-1" width="30" height="30"/></clipPath></defs><g id="Layer_2" data-name="Layer 2"><g id="Layer_1-2" data-name="Layer 1"><g id="Globe_LN_-_White" data-name="Globe LN - White"><g class="cls-2"><g class="cls-2"><path class="cls-3" d="M15,0A15,15,0,1,0,30,15,15,15,0,0,0,15,0m9.33,7.78H22.44a17.81,17.81,0,0,0-1.36-3.26,12.47,12.47,0,0,0-1.4-2,12.44,12.44,0,0,1,4.65,5.31m-3.07,0h-2A18.73,18.73,0,0,0,17.49,2a8.92,8.92,0,0,1,2.6,3.1,15.58,15.58,0,0,1,1.17,2.72m-5.7-6.45A7.27,7.27,0,0,1,17.49,5a24.69,24.69,0,0,1,.65,2.83H15.56Zm2.76,7.58a43.29,43.29,0,0,1,.4,5.53H15.56V8.91Zm1.52,5.53a45,45,0,0,0-.39-5.53h2.14a23.75,23.75,0,0,1,.74,5.53Zm3.62,0a25,25,0,0,0-.71-5.53h2.06a17,17,0,0,1,1.11,5.53Zm3.58,0a18.25,18.25,0,0,0-1-5.53h1.44a13.69,13.69,0,0,1,1.4,5.53Zm-.2-6.66H25.57a14.83,14.83,0,0,0-2-3.34c-.26-.34-.55-.66-.83-1a13.94,13.94,0,0,1,4.11,4.3M14.44,1.14v13.3H1.14a13.89,13.89,0,0,1,13.3-13.3M5.67,22.22H7.56a17.81,17.81,0,0,0,1.36,3.26,12.47,12.47,0,0,0,1.4,2.05,12.44,12.44,0,0,1-4.65-5.31M1.14,15.56H3a17.66,17.66,0,0,0,1,5.53H2.54a13.69,13.69,0,0,1-1.4-5.53m2.94,0H6.54a25,25,0,0,0,.71,5.53H5.19a16.49,16.49,0,0,1-1.11-5.53m6.07,0a47,47,0,0,0,.4,5.53H8.41a23.75,23.75,0,0,1-.74-5.53h2.48m.57,6.66A19,19,0,0,0,12.51,28a8.94,8.94,0,0,1-2.61-3.1,16.36,16.36,0,0,1-1.16-2.72Zm3.72,6.44a7.15,7.15,0,0,1-1.93-3.61,22.75,22.75,0,0,1-.65-2.83h2.58Zm-2.76-7.57a43.29,43.29,0,0,1-.4-5.53h3.16v5.53ZM3.16,22.22H4.43a15.17,15.17,0,0,0,2,3.34q.41.51.84,1a13.94,13.94,0,0,1-4.11-4.3m12.4,6.64V15.56h13.3a13.89,13.89,0,0,1-13.3,13.3"/><polygon class="cls-3" points="11.06 10.64 8.83 10.64 8.83 5.52 7.08 5.52 7.08 12.23 11.06 12.23 11.06 10.64"/><polygon class="cls-3" points="22.09 21.53 19.33 17.75 17.66 17.75 17.66 24.46 19.41 24.46 19.41 20.7 22.17 24.46 23.84 24.46 23.84 17.75 22.09 17.75 22.09 21.53"/></g></g></g></g></g></svg>