<svg xmlns="http://www.w3.org/2000/svg" viewBox="0 0 240 259.66"><defs><style>.cls-1{fill:none;}.cls-2{fill:#241f21;}.cls-3{fill:#ff4a00;}.cls-4{fill:#fff;}</style></defs><g id="Layer_2" data-name="Layer 2"><g id="Layer_1-2" data-name="Layer 1"><path class="cls-1" d="M91.7,203.22l-5.25-8a1.26,1.26,0,0,1,1.06-2h65a1.26,1.26,0,0,1,1.06,2l-5.25,8a2,2,0,0,1-1.69.91h-.76s6.52,7.91,11,13.14l-4.07-4.84,17.7-14.79a21.38,21.38,0,0,0,6.92-21.74L154.59,89.47a6.63,6.63,0,0,0-6.41-4.94h-7.77v5.53h3.49a2.27,2.27,0,0,1,2.27,2.27v3.93a2.26,2.26,0,0,1-2.27,2.26H96.1a2.26,2.26,0,0,1-2.27-2.26V92.33a2.27,2.27,0,0,1,2.27-2.27h3.48V84.53H91.82a6.45,6.45,0,0,0-2.16.37h0a7.06,7.06,0,0,0-.89.39c-.09,0-.18.12-.28.17s-.38.23-.56.37a3.5,3.5,0,0,0-.3.24,6.14,6.14,0,0,0-.47.42l-.27.29c-.14.15-.26.32-.39.49s-.15.2-.22.31-.23.4-.33.6l-.16.3a6.29,6.29,0,0,0-.34,1L62.63,175.89c-.12.48-.23,1-.32,1.45,0,.17-.05.33-.08.5s-.11.64-.15,1,0,.4,0,.59-.05.59-.06.88,0,.41,0,.62,0,.56,0,.84,0,.42,0,.64,0,.54.05.81,0,.43.07.65.07.53.11.79.08.43.12.64.1.53.16.78.1.43.16.64.13.51.21.76.13.42.19.63l.27.75.24.61c.1.25.21.49.32.73s.18.4.28.59.24.48.37.72.2.38.31.56.29.47.43.7.22.36.34.54l.49.68c.13.17.24.34.37.5s.38.46.58.69l.36.44c.23.25.48.5.72.75l.3.31c.36.34.73.68,1.12,1l.21.18,17.47,14.63-4,4.81c4.44-5.23,11-13.12,11-13.12h-.76A2,2,0,0,1,91.7,203.22ZM89.59,141.3c7.27-21.32,10.11-28.05,10.83-37.21a1.75,1.75,0,0,1,1.75-1.62h35.66a1.76,1.76,0,0,1,1.75,1.62c.72,9.16,3.56,15.89,10.83,37.21,10.06,29.51,10.91,28.46,2.55,46.42a2.69,2.69,0,0,1-2.43,1.55H89.47A2.69,2.69,0,0,1,87,187.72C78.68,169.76,79.53,170.81,89.59,141.3Z"/><path class="cls-1" d="M151.39,77.42a1.51,1.51,0,1,0-1.51-1.51A1.51,1.51,0,0,0,151.39,77.42Z"/><path class="cls-1" d="M88.61,77.42a1.51,1.51,0,1,0-1.52-1.51A1.51,1.51,0,0,0,88.61,77.42Z"/><path class="cls-2" d="M105.52,193.22H95.78a2.36,2.36,0,0,0,.2,2l5.32,8.95h0s-6.57,11-9.48,15.65S89.25,230.2,89.25,237H87.74c-1.14,0-2.1,1.12-2.29,2.64l-1,8.42c-.18,1.5.67,2.86,1.78,2.86H99.05c-.69,0-1.22-1.36-1.11-2.86l.63-8.42c.11-1.52.71-2.64,1.41-2.64h1.12c0-6.8-.22-12.59,1.57-17.22s5.83-15.65,5.83-15.65h0l-3-8.94A3.16,3.16,0,0,1,105.52,193.22Z"/><path class="cls-2" d="M117.6,52.08h0c-10.26,0-7.47,13.31-18,13.31v7.3h4V90.06h-4v8.46h7.9V90.06h4V72.69h-4v-7.3c6.45,0,4.74-13.29,11-13.31h-.91Z"/><path class="cls-3" d="M116.89,52.08c-13.2,0-9.55,13.32-23.06,13.32v5A2.27,2.27,0,0,0,96.1,72.7h3.48V65.4c10.52,0,7.73-13.3,18-13.32h.94c-6.3,0-4.58,13.32-11,13.32v7.3h4V90.06h-4v8.47H120V52.08h1.49c6.29,0,4.57,13.31,11,13.31v7.3h-4V90.06h4v8.46h7.9V90.06h-3.95V72.69h3.95v-7.3c-10.52,0-7.73-13.29-18-13.31h.69a3.14,3.14,0,0,0-6.23,0Z"/><path class="cls-3" d="M99.58,98.53V90.06H96.1a2.27,2.27,0,0,0-2.27,2.27v3.93a2.27,2.27,0,0,0,2.27,2.27Z"/><path class="cls-3" d="M86.82,70.66h1.9a.81.81,0,0,0,.7-1.24l-.42-.7c-.12-.19-.24-.38-.35-.57s-.14-.24-.21-.36c-.42-.71-.82-1.41-1.2-2.08a.93.93,0,0,0,0-.1,54.24,54.24,0,0,1-2.65-5.4l0-.08c-.41-1-.75-2-1-2.87,0,0,0,0,0-.06a20.92,20.92,0,0,1-.62-2.68c0-.14,0-.28,0-.42s0-.31-.07-.46,0-.36,0-.54,0-.21,0-.31a2.44,2.44,0,0,1,0-.27,12.87,12.87,0,0,1,0-1.39c0-.49.1-1,.18-1.45,0,0,0-.1,0-.15s.06-.24.08-.35.07-.29.1-.44l.13-.46.09-.31c.12-.37.27-.74.42-1.1s.24-.55.37-.82.34-.65.53-1a.75.75,0,0,1,.07-.12l.12-.2c.27-.43.55-.86.87-1.28l.07-.09a26.6,26.6,0,0,1,2.51-2.88c5.18-5.17,5.45-12,5.69-18.12.23-5.84.45-11,4.37-14.5,3.27-2.9,9.08-4.64,19.62-4.64H120V0h-2.08C106.32,0,99.75,2.19,96,5.57c-4.81,4.31-5.06,10.55-5.3,16.69s-.46,11.67-4.74,16c-9.58,9.58-8.06,18.47.17,32.06A.85.85,0,0,0,86.82,70.66Z"/><path class="cls-3" d="M137.83,102.47H102.17a1.76,1.76,0,0,0-1.75,1.62c-.72,9.16-3.56,15.89-10.83,37.21C79.53,170.81,78.68,169.76,87,187.72a2.69,2.69,0,0,0,2.43,1.55h61.06a2.69,2.69,0,0,0,2.43-1.55c8.36-18,7.51-16.91-2.55-46.42-7.27-21.32-10.11-28.05-10.83-37.21A1.76,1.76,0,0,0,137.83,102.47Z"/><path class="cls-3" d="M166,250.92H153.77c1.12,0,2-1.36,1.79-2.86l-1-8.42c-.18-1.53-1.15-2.65-2.29-2.65h-1.51c0-6.79.36-12.58-2.56-17.22s-9.48-15.64-9.48-15.64h0l5.32-9a2.36,2.36,0,0,0,.2-2h-9.74a3.16,3.16,0,0,1,0,2l-3,8.95h0s4,11,5.83,15.64,1.57,10.43,1.57,17.22H140c.71,0,1.3,1.12,1.42,2.65l.63,8.42c.11,1.5-.42,2.86-1.11,2.86H120V222.1c-4.76,0-8.61-2.56-8.61-5.73V214c0,3.17,3.85,5.74,8.61,5.74a12.92,12.92,0,0,0,1.89-.15,11.38,11.38,0,0,0,2.43-.63,5.46,5.46,0,0,0,.6-.27,7.56,7.56,0,0,0,2-1.25A4.64,4.64,0,0,0,128.6,214c0-2.25-1.94-4.19-4.75-5.13a12.2,12.2,0,0,0-3.86-.61V193.21H105.52a3.16,3.16,0,0,0,0,2l3,8.95h0s-4,11-5.83,15.64S101.1,230.2,101.1,237H100c-.7,0-1.3,1.12-1.42,2.65l-.63,8.42c-.11,1.5.42,2.86,1.11,2.86H86.22c-1.12,0-2-1.36-1.78-2.86l1-8.42c.19-1.53,1.15-2.65,2.29-2.65h1.52c0-6.79-.36-12.58,2.55-17.22s9.49-15.64,9.49-15.64h0l-5.31-9a2.32,2.32,0,0,1-.21-2H87.51a1.27,1.27,0,0,0-1.06,2l5.25,8a2,2,0,0,0,1.69.92h.76s-3.36,4.08-6.9,8.31L69.78,197.81l-.22-.18c-.38-.32-.75-.65-1.11-1-.11-.1-.2-.21-.3-.31-.25-.25-.49-.49-.72-.75s-.25-.29-.37-.44-.39-.45-.58-.69l-.36-.49c-.17-.23-.34-.46-.49-.69l-.35-.54c-.14-.23-.29-.46-.42-.69l-.32-.57-.37-.71c-.1-.2-.19-.4-.28-.6s-.22-.48-.32-.73-.16-.4-.23-.61-.19-.49-.27-.75-.14-.41-.2-.62-.15-.51-.21-.77-.11-.42-.16-.63-.11-.52-.16-.78l-.12-.65c0-.26-.07-.53-.1-.79s-.06-.43-.08-.65,0-.54,0-.81l0-.64c0-.28,0-.56,0-.84s0-.42,0-.62,0-.58.07-.88,0-.39.05-.58.09-.65.14-1,0-.33.08-.49c.09-.49.2-1,.33-1.46L85.42,89.46a6.72,6.72,0,0,1,.35-1c0-.1.1-.19.15-.3s.21-.4.33-.6l.23-.31a6,6,0,0,1,.39-.49l.27-.29a6,6,0,0,1,.46-.42l.3-.24c.18-.13.37-.25.57-.37s.18-.12.28-.17a5.31,5.31,0,0,1,.88-.38l0,0a6.48,6.48,0,0,1,2.16-.36H99.6v5.52h3.94V72.69H99.6v5.52H91.83V75.9a3.22,3.22,0,0,0-6.43,0v4a13,13,0,0,0-6.08,7.92L56.54,174.27a27.71,27.71,0,0,0,9,28.2L83.2,217.25c-.8.94-1.54,1.8-2.16,2.51-4,4.64-3.52,10.43-3.52,17.22H76.05a3.16,3.16,0,0,0-3.11,2.65l-1.4,8.43A2.46,2.46,0,0,0,74,250.92H0c0,4.83,53.73,8.74,120,8.74s120-3.91,120-8.74ZM125.82,214a2.56,2.56,0,0,1-1.17,2h0a6,6,0,0,1-1.71.86,9,9,0,0,1-1.64.37,10.6,10.6,0,0,1-1.28.08c-3.21,0-5.82-1.48-5.82-3.3s2.61-3.3,5.82-3.3a8.39,8.39,0,0,1,4.16,1A2.83,2.83,0,0,1,125.82,214ZM88.61,74.39a1.52,1.52,0,1,1-1.52,1.52A1.52,1.52,0,0,1,88.61,74.39ZM87.24,212.45c-1.39,1.65-2.8,3.34-4,4.81Z"/><path class="cls-4" d="M141.43,239.64c-.12-1.53-.72-2.65-1.42-2.65h-1.12c0-6.79.22-12.58-1.56-17.22s-5.83-15.64-5.83-15.64h-.05l3-8.95a3.16,3.16,0,0,0,0-2H120V208.3a12.2,12.2,0,0,1,3.86.61c2.82.94,4.76,2.88,4.76,5.13a4.62,4.62,0,0,1-1.74,3.44,8,8,0,0,1-2,1.25l-.6.27a11.84,11.84,0,0,1-2.43.63,12.81,12.81,0,0,1-1.89.15c-4.75,0-8.61-2.57-8.61-5.74v2.33c0,3.16,3.86,5.73,8.61,5.73v28.82H141c.69,0,1.22-1.36,1.11-2.86Z"/><path class="cls-4" d="M114.18,214c0,1.82,2.61,3.3,5.82,3.3a10.6,10.6,0,0,0,1.28-.08,9.14,9.14,0,0,0,1.64-.37,6,6,0,0,0,1.71-.86h0a2.57,2.57,0,0,0,1.17-2,2.81,2.81,0,0,0-1.66-2.3,8.37,8.37,0,0,0-4.15-1C116.78,210.74,114.18,212.22,114.18,214Z"/><path class="cls-4" d="M143.9,98.53a2.27,2.27,0,0,0,2.27-2.27V92.33a2.27,2.27,0,0,0-2.27-2.27h-3.49v8.47Z"/><path class="cls-4" d="M146.17,70.43v-5c-13.49,0-9.91-13.3-23.06-13.32h-.68c10.26,0,7.46,13.32,18,13.32v7.3h3.49A2.27,2.27,0,0,0,146.17,70.43Z"/><path class="cls-4" d="M132.52,72.69v-7.3c-6.46,0-4.74-13.29-11-13.31H120V98.53h12.51V90.06h-3.95V72.7h4Z"/><path class="cls-4" d="M184.35,180.78c0-.27,0-.53,0-.8s-.05-.77-.09-1.15,0-.5-.06-.76c-.05-.42-.12-.84-.19-1.26,0-.21-.06-.42-.1-.63q-.18-1-.42-1.89L160.7,87.86c-.09-.33-.2-.67-.31-1,0-.11-.09-.21-.13-.32s-.16-.43-.26-.64-.11-.24-.17-.36-.18-.38-.28-.56l-.21-.36c-.1-.18-.2-.35-.31-.51a3.75,3.75,0,0,0-.24-.36l-.34-.47-.27-.34c-.12-.15-.25-.29-.38-.44l-.28-.31c-.14-.14-.28-.28-.43-.41a3.83,3.83,0,0,0-.29-.28l-.49-.41c-.09-.07-.18-.16-.28-.23s-.41-.3-.63-.44l-.19-.13a6,6,0,0,0-.6-.36v-4a3.22,3.22,0,0,0-6.43,0v2.32h-7.76V72.69h-3.95V90.06h3.95V84.53h7.76a6.63,6.63,0,0,1,6.41,4.94l22.78,86.42a21.37,21.37,0,0,1-6.92,21.74l-17.7,14.8c-3.54-4.24-6.9-8.3-6.9-8.3h.76a2,2,0,0,0,1.69-.92l5.26-8a1.27,1.27,0,0,0-1.07-2h-8.27a2.36,2.36,0,0,1-.2,2l-5.32,9h0s6.57,11,9.48,15.64,2.56,10.43,2.56,17.22h1.51c1.14,0,2.1,1.12,2.29,2.64l1,8.42c.18,1.5-.67,2.86-1.78,2.86H166a2.46,2.46,0,0,0,2.43-2.86l-1.38-8.42A3.16,3.16,0,0,0,164,237H162.5c0-6.79.5-12.59-3.53-17.22-.61-.71-1.34-1.56-2.14-2.51l17.67-14.79c.4-.33.78-.69,1.16-1,.07-.07.14-.12.2-.19l.58-.58c.26-.26.52-.53.76-.8s.37-.42.55-.64.46-.54.68-.82.34-.46.51-.68.42-.56.61-.85.32-.48.47-.72.37-.59.54-.88.29-.5.42-.76.33-.6.48-.91.25-.51.37-.78.27-.62.41-.93l.32-.81c.12-.31.23-.63.34-1s.18-.54.26-.82.2-.65.28-1,.15-.56.21-.84.14-.67.21-1,.11-.57.15-.85.1-.68.14-1,.08-.56.1-.84.05-.7.07-1.06,0-.55,0-.83S184.35,181.15,184.35,180.78Zm-31.59,31.66,4.05,4.82C155.56,215.79,154.15,214.11,152.76,212.44Zm-1.37-138a1.52,1.52,0,1,1-1.51,1.52A1.52,1.52,0,0,1,151.39,74.39Z"/><path class="cls-4" d="M137.26,157.61,144,158v-2.94l-6.74.41a15.29,15.29,0,0,1-16.2-16.2l.41-6.73h-2.94l.41,6.73a15.28,15.28,0,0,1-16.19,16.2L96,155.08V158l6.74-.41a15.29,15.29,0,0,1,16.19,16.2l-.41,6.73h2.94l-.41-6.73A15.29,15.29,0,0,1,137.26,157.61Z"/><path class="cls-4" d="M122.09,3.25c23.23,0,23.56,8.44,24,19.13.24,6.07.51,13,5.69,18.13,7.16,7.15,8.33,13.14-1.24,28.91a.82.82,0,0,0,.7,1.24h2a.82.82,0,0,0,.7-.39h0c.47-.77.91-1.52,1.33-2.26l.14-.24.33-.61.34-.6.24-.44.39-.74c.33-.65.65-1.29.95-1.92l.18-.38c.05-.1.09-.2.14-.31l.36-.8.22-.54c.08-.19.16-.37.23-.56s.18-.46.27-.7.1-.25.14-.37a27.69,27.69,0,0,0,1.16-4.1v0c0-.21.08-.42.11-.62l.06-.37c0-.12,0-.24.05-.36s0-.41.07-.62a17.4,17.4,0,0,0,.08-1.76v-.16a17.73,17.73,0,0,0-.12-1.79.19.19,0,0,1,0-.08l-.06-.41a15.89,15.89,0,0,0-.55-2.34,19.88,19.88,0,0,0-3.72-6.58c-.4-.49-.82-1-1.27-1.46q-.42-.45-.87-.9c-4.28-4.28-4.51-9.95-4.74-16-.44-11-.89-22.26-27.24-22.26H120V3.25h2.1Z"/><path class="cls-4" d="M77.86,112.09a27.24,27.24,0,1,0-27.24,27.24A27.27,27.27,0,0,0,77.86,112.09Zm-2.07-1h-3.3a30.6,30.6,0,0,0-6.32-18.16c-.49-.61-1-1.19-1.52-1.74A25.21,25.21,0,0,1,75.79,111.07ZM51.64,87.26c1.23.88,2.51,3.23,3.5,6.58a65.5,65.5,0,0,1,2.23,17.23H51.63V87.26Zm7.78,23.81c-.11-8.82-1.58-17.84-4.28-22.66A16.23,16.23,0,0,1,59.87,94a37.77,37.77,0,0,1,4.07,17Zm6.56,0a39.86,39.86,0,0,0-4.32-18,22.3,22.3,0,0,0-2.53-3.73c6.46,3.92,11,12.15,11.31,21.74ZM49.59,86.92v24.15H25.44A25.22,25.22,0,0,1,49.59,86.92Zm-18.8,26.19h4.46a39.86,39.86,0,0,0,4.32,18,21.33,21.33,0,0,0,2.53,3.73C35.63,130.93,31.09,122.71,30.79,113.11Zm11,0c.11,8.82,1.58,17.84,4.28,22.66a16.14,16.14,0,0,1-4.73-5.63,37.64,37.64,0,0,1-4.06-17Zm7.78,23.8c-1.23-.87-2.5-3.23-3.5-6.57a65.92,65.92,0,0,1-2.23-17.23H49.6v23.8Zm-24.15-23.8h3.3a30.58,30.58,0,0,0,6.32,18.16c.49.61,1,1.19,1.52,1.74A25.21,25.21,0,0,1,25.44,113.11Zm26.2,24.16V113.11H75.79A25.24,25.24,0,0,1,51.64,137.27Z"/><path class="cls-4" d="M26.88,94.08a.27.27,0,0,0,.38,0l1.59-1.91a.27.27,0,0,0,0-.38l-.32-.26a.3.3,0,0,0-.39,0l-.94,1.13a.24.24,0,0,1-.37,0l-1.17-1a.26.26,0,0,1-.05-.37l.81-1a.27.27,0,0,0,0-.37L26,89.71a.25.25,0,0,0-.38,0l-.8,1a.26.26,0,0,1-.37,0L23.58,90a.27.27,0,0,1-.06-.41l.94-1.13a.23.23,0,0,0,0-.36l-.32-.27a.24.24,0,0,0-.38,0l-1.6,1.91a.33.33,0,0,0,0,.38Z"/><path class="cls-4" d="M26,85.87l2.63,1.28c.22.09.27.18.35.41l.94,3.06c0,.12.16.2.28.1l.44-.37a.43.43,0,0,0,.13-.45L30.13,88c-.07-.19,0-.24.16-.14l1.82.93a.44.44,0,0,0,.47,0l.46-.39c.15-.12.08-.22-.06-.29l-2.9-1.4a.56.56,0,0,1-.35-.41l-.85-2.79a.18.18,0,0,0-.3-.1l-.45.38a.4.4,0,0,0-.11.45l.57,1.65c.06.16,0,.22-.16.14l-1.57-.82a.39.39,0,0,0-.46,0l-.47.39C25.81,85.68,25.87,85.8,26,85.87Z"/><path class="cls-4" d="M34.52,87a.27.27,0,0,0,.35.09l.43-.24a.29.29,0,0,0,.12-.37l-1.07-1.88a.26.26,0,0,1,.09-.38l.37-.2c1.17-.66,1.38-1.5.69-2.72a2.05,2.05,0,0,0-1.21-1.07,1.9,1.9,0,0,0-1.44.32l-1.26.72a.26.26,0,0,0-.1.36ZM33,81.6l.16-.09c.74-.42,1.08-.33,1.49.39s.25,1-.46,1.41L34,83.4a.22.22,0,0,1-.35-.1L32.86,82A.26.26,0,0,1,33,81.6Z"/><path class="cls-4" d="M39.51,84.44a.26.26,0,0,0,.33.16l2.43-.85a.25.25,0,0,0,.16-.33l-.14-.4a.24.24,0,0,0-.34-.17l-1.45.51a.24.24,0,0,1-.32-.17l-1.73-4.9a.26.26,0,0,0-.35-.16l-.47.16a.27.27,0,0,0-.16.35Z"/><path class="cls-4" d="M43.72,81.17a2.49,2.49,0,0,0,.63,1.5,1.71,1.71,0,0,0,1.53.41,1.75,1.75,0,0,0,1.33-.87,2.47,2.47,0,0,0,.12-1.63L47,78.19a2.62,2.62,0,0,0-.64-1.51,2,2,0,0,0-2.86.46,2.6,2.6,0,0,0-.12,1.63Zm1.21-3.94c.57-.09.83.2,1,1.14l.39,2.37c.15.93,0,1.29-.57,1.38s-.83-.2-1-1.13l-.38-2.37C44.21,77.68,44.35,77.33,44.93,77.23Z"/><path class="cls-4" d="M50,82.57h.52a.26.26,0,0,0,.27-.26l.05-2.21a.23.23,0,0,1,.28-.25h.09a.33.33,0,0,1,.35.27l.65,2.22a.33.33,0,0,0,.35.28h.55a.19.19,0,0,0,.19-.26l-.77-2.57c0-.16,0-.22.15-.33a1.86,1.86,0,0,0,.73-1.61,1.72,1.72,0,0,0-1.86-2l-1.37,0a.28.28,0,0,0-.27.26l-.15,6.16A.24.24,0,0,0,50,82.57Zm.92-5.44a.27.27,0,0,1,.27-.27h.11c.79,0,1,.29,1,1s-.3,1-1.09,1h-.11a.28.28,0,0,1-.27-.27Z"/><path class="cls-4" d="M55,82.86l.48.1a.32.32,0,0,0,.37-.19l.36-.86a.35.35,0,0,1,.36-.21l.87.18a.33.33,0,0,1,.26.34v.93a.3.3,0,0,0,.25.33l.49.1a.22.22,0,0,0,.28-.22l.05-6.27a.3.3,0,0,0-.26-.33l-.87-.19a.3.3,0,0,0-.36.19l-2.43,5.78A.22.22,0,0,0,55,82.86Zm1.76-2.34.94-2.31c0-.09.1-.06.1,0l-.06,2.48c0,.18-.11.25-.27.22l-.52-.11C56.77,80.78,56.67,80.67,56.73,80.52Z"/><path class="cls-4" d="M61.05,84.49l.47.19a.28.28,0,0,0,.35-.15l1.85-4.77a.26.26,0,0,1,.35-.15l.71.27a.26.26,0,0,0,.34-.15l.19-.48a.26.26,0,0,0-.16-.34l-2.89-1.12a.26.26,0,0,0-.33.15l-.19.47a.28.28,0,0,0,.15.35l.71.27a.32.32,0,0,1,.16.34L60.9,84.15A.27.27,0,0,0,61.05,84.49Z"/><path class="cls-4" d="M64.83,86.24l.44.24a.28.28,0,0,0,.36-.08l3-5.39a.27.27,0,0,0-.1-.35l-.45-.25a.26.26,0,0,0-.36.1l-3,5.38A.27.27,0,0,0,64.83,86.24Z"/><path class="cls-4" d="M68.76,89a1.7,1.7,0,0,0,1.54.39,2.49,2.49,0,0,0,1.28-1l1.5-1.91A2.55,2.55,0,0,0,73.76,85a1.7,1.7,0,0,0-.75-1.4,1.66,1.66,0,0,0-1.52-.39,2.45,2.45,0,0,0-1.29,1l-1.5,1.91A2.46,2.46,0,0,0,68,87.56,1.7,1.7,0,0,0,68.76,89Zm.76-2.25L71,84.83c.59-.75,1-.89,1.42-.52s.41.74-.18,1.49l-1.48,1.89c-.58.74-1,.87-1.4.51S68.94,87.46,69.52,86.71Z"/><path class="cls-4" d="M71.91,91.62l.33.39a.27.27,0,0,0,.39,0l2.64-2.28c.09-.08.13,0,.07.09l-1.69,3.37a.38.38,0,0,0,0,.46l.33.39a.28.28,0,0,0,.37,0l4.67-4a.25.25,0,0,0,0-.38l-.34-.38a.25.25,0,0,0-.37,0l-2.64,2.27c-.09.08-.14,0-.07-.08l1.69-3.39a.43.43,0,0,0,0-.46L77,87.26a.24.24,0,0,0-.37,0l-4.67,4A.25.25,0,0,0,71.91,91.62Z"/><path class="cls-4" d="M14.68,110.7l5.11.27a.27.27,0,0,1,.26.28l0,.76a.25.25,0,0,0,.24.28l.52,0a.26.26,0,0,0,.28-.25l.16-3.09a.29.29,0,0,0-.25-.28l-.51,0a.27.27,0,0,0-.28.24l0,.76a.31.31,0,0,1-.28.26l-5.12-.26a.25.25,0,0,0-.27.24l0,.51A.27.27,0,0,0,14.68,110.7Z"/><path class="cls-4" d="M21.46,117.11l-.06-.51a.28.28,0,0,0-.3-.23l-2.22.26a.34.34,0,0,1-.3-.24l-.12-.93a.29.29,0,0,1,.24-.29l2.22-.26a.31.31,0,0,0,.24-.3l-.06-.5a.28.28,0,0,0-.3-.23l-6.11.73a.28.28,0,0,0-.23.29l.06.49a.31.31,0,0,0,.29.24l2.37-.28a.29.29,0,0,1,.32.22l.11.93a.3.3,0,0,1-.25.31l-2.38.28a.3.3,0,0,0-.23.29l.07.5a.33.33,0,0,0,.29.24l6.12-.73A.28.28,0,0,0,21.46,117.11Z"/><path class="cls-4" d="M19.39,123.07a1.87,1.87,0,0,0,1.75.17,1.71,1.71,0,0,0,1.26-2.39L22,119.54a.27.27,0,0,0-.33-.17l-5.88,1.83a.26.26,0,0,0-.18.32l.16.5a.25.25,0,0,0,.32.17l2.11-.66a.25.25,0,0,1,.34.18l0,.09a.3.3,0,0,1-.14.41l-1.89,1.33a.34.34,0,0,0-.16.42l.17.53a.19.19,0,0,0,.31.09L19,123C19.16,122.94,19.24,123,19.39,123.07Zm.23-2,1.43-.44a.27.27,0,0,1,.34.18l0,.11c.24.75.07,1.09-.65,1.31s-1.06,0-1.3-.71l0-.1A.28.28,0,0,1,19.62,121.08Z"/><path class="cls-4" d="M24.65,127.35a1.75,1.75,0,0,0-.11-1.59,1.71,1.71,0,0,0-1.24-1,2.5,2.5,0,0,0-1.59.41l-2.15,1.12a2.55,2.55,0,0,0-1.22,1.08A2,2,0,0,0,19.69,130a2.52,2.52,0,0,0,1.58-.4l2.15-1.13A2.58,2.58,0,0,0,24.65,127.35Zm-3.86,1.28c-.84.44-1.22.41-1.49-.11s-.08-.85.76-1.29l2.12-1.12c.84-.44,1.22-.42,1.5.1s.08.85-.77,1.3Z"/><path class="cls-4" d="M28.33,131.52l-.31-.38a.26.26,0,0,0-.38,0l-3.48,2.74c-.63.5-1,.54-1.33.12s-.2-.78.42-1.27l3.48-2.75a.25.25,0,0,0,.05-.38l-.31-.39a.27.27,0,0,0-.37,0l-3.36,2.65a2.56,2.56,0,0,0-1.06,1.32,1.71,1.71,0,0,0,.39,1.46,1.63,1.63,0,0,0,1.32.71,2.4,2.4,0,0,0,1.55-.73l3.34-2.63A.29.29,0,0,0,28.33,131.52Z"/><path class="cls-4" d="M31.19,136.9a1.79,1.79,0,0,0,0-2.73,1.71,1.71,0,0,0-1.48-.46c-.5.1-.79.32-1.51,1.14L27,136.24a3.54,3.54,0,0,0-1,1.53,1.52,1.52,0,0,0,.53,1.51,1.31,1.31,0,0,0,.73.35s.11,0,.13,0-.08.16.1.32l.38.33a.27.27,0,0,0,.38,0l1.84-2.1a.28.28,0,0,0,0-.39l-1-.89a.25.25,0,0,0-.38,0l-.2.23a.26.26,0,0,0,0,.38l.23.2c.16.14.11.29,0,.42-.59.68-1,.82-1.42.47s-.34-.85.45-1.75l1.34-1.52c.64-.73,1-.87,1.44-.5s.34.78-.09,1.32a.25.25,0,0,0,0,.37l.38.34A.25.25,0,0,0,31.19,136.9Z"/><path class="cls-4" d="M36.89,138.29l-.44-.26a.3.3,0,0,0-.36.1L35,140.06a.36.36,0,0,1-.38.1l-.8-.48a.3.3,0,0,1-.09-.37l1.14-1.93a.31.31,0,0,0-.09-.37l-.43-.25a.29.29,0,0,0-.37.1l-3.13,5.29a.29.29,0,0,0,.09.36l.43.26a.32.32,0,0,0,.37-.09l1.21-2.06a.29.29,0,0,1,.38-.11l.8.48a.29.29,0,0,1,.09.38L33,143.43a.28.28,0,0,0,.09.36l.44.26a.31.31,0,0,0,.36-.09l3.14-5.3A.31.31,0,0,0,36.89,138.29Z"/><path class="cls-4" d="M44.32,141l-2.43-.66a.27.27,0,0,0-.33.2L40,146.46a.34.34,0,0,0,.18.33l.48.13a.34.34,0,0,0,.34-.19l.64-2.4a.29.29,0,0,1,.33-.19l1.23.33a.32.32,0,0,0,.33-.18l.1-.39a.3.3,0,0,0-.19-.35l-1.23-.34a.28.28,0,0,1-.17-.32l.31-1.17a.29.29,0,0,1,.32-.2l1.44.39a.29.29,0,0,0,.33-.19l.11-.4A.25.25,0,0,0,44.32,141Z"/><path class="cls-4" d="M48.87,141.6l-2.48-.25a.32.32,0,0,0-.3.24l-.64,6.12a.28.28,0,0,0,.24.29l2.48.26a.28.28,0,0,0,.3-.24l0-.41a.29.29,0,0,0-.24-.31l-1.46-.15a.24.24,0,0,1-.22-.3l.15-1.51a.27.27,0,0,1,.28-.25l1.25.13a.26.26,0,0,0,.29-.23l0-.42a.25.25,0,0,0-.23-.3l-1.24-.13a.26.26,0,0,1-.25-.29l.13-1.17c0-.18.11-.3.3-.28l1.46.15a.24.24,0,0,0,.28-.23l.05-.42A.24.24,0,0,0,48.87,141.6Z"/><path class="cls-4" d="M53.8,145.36c0-.16,0-.22.13-.35a1.83,1.83,0,0,0,.58-1.66,1.7,1.7,0,0,0-2-1.78l-1.37.08a.29.29,0,0,0-.25.29l.39,6.14a.24.24,0,0,0,.27.24l.52,0a.25.25,0,0,0,.24-.27l-.14-2.21c0-.18.08-.27.26-.28h.09a.32.32,0,0,1,.36.24l.85,2.15a.33.33,0,0,0,.38.25l.55,0a.2.2,0,0,0,.16-.29Zm-1.34-.79h-.11a.28.28,0,0,1-.29-.26L52,142.83a.27.27,0,0,1,.25-.29h.11c.79-.05,1.08.2,1.13.94S53.25,144.52,52.46,144.57Z"/><path class="cls-4" d="M60.85,140.2a.27.27,0,0,0-.34-.18l-.92.24a.31.31,0,0,0-.25.36l.12,3.54c0,.09-.06.12-.1,0l-1.69-3.12a.31.31,0,0,0-.39-.17l-1,.26c-.19.05-.24.13-.18.32l1.62,5.93a.28.28,0,0,0,.32.2l.44-.12a.28.28,0,0,0,.19-.33L57.58,143c0-.09,0-.09.06,0l2.11,3.9a.36.36,0,0,0,.4.17l.09,0a.36.36,0,0,0,.24-.35l-.16-4.41c0-.09,0-.1.07,0l1.13,4.15a.26.26,0,0,0,.32.19l.43-.11a.29.29,0,0,0,.2-.33Z"/><path class="cls-4" d="M67.94,143.18a.29.29,0,0,0-.37-.13l-1.31.66a.25.25,0,0,1-.35-.13l-.68-1.36a.27.27,0,0,1,.1-.36l1.13-.56a.28.28,0,0,0,.12-.36l-.19-.37a.24.24,0,0,0-.35-.13l-1.12.56a.25.25,0,0,1-.36-.12l-.53-1a.27.27,0,0,1,.11-.4l1.31-.66a.24.24,0,0,0,.11-.35l-.19-.38a.23.23,0,0,0-.35-.12L62.79,139a.3.3,0,0,0-.12.36l2.74,5.51a.28.28,0,0,0,.36.11L68,143.9a.26.26,0,0,0,.13-.35Z"/><path class="cls-4" d="M69.89,134.89a.25.25,0,0,0-.38,0l-.4.3a.26.26,0,0,0,0,.37l2.08,2.8c.07.1,0,.14-.09.07l-3.26-1.93a.39.39,0,0,0-.45,0l-.41.3a.25.25,0,0,0-.05.38l3.68,4.94a.24.24,0,0,0,.36,0l.41-.3a.26.26,0,0,0,.06-.38l-2.08-2.8c-.08-.1,0-.14.09-.07l3.24,1.93a.41.41,0,0,0,.47,0l.4-.31a.28.28,0,0,0,.06-.37Z"/><path class="cls-4" d="M73.42,132.87a.26.26,0,0,1,0-.38l.52-.56a.27.27,0,0,0,0-.37l-.38-.35a.26.26,0,0,0-.37,0L71,133.48a.28.28,0,0,0,0,.37l.37.35a.29.29,0,0,0,.38,0l.52-.55a.31.31,0,0,1,.38,0l3.73,3.52a.28.28,0,0,0,.37,0l.34-.37a.28.28,0,0,0,0-.38Z"/><path class="cls-4" d="M81.43,130.72l-5.77-2.45a.3.3,0,0,0-.41.12l-.5.73a.28.28,0,0,0,0,.4L79.2,134a.22.22,0,0,0,.35,0l.27-.4a.32.32,0,0,0,0-.41l-.65-.67a.35.35,0,0,1-.06-.41l.5-.73a.33.33,0,0,1,.42-.11l.85.36a.31.31,0,0,0,.41-.12l.28-.41A.21.21,0,0,0,81.43,130.72Zm-2.74.22-.3.44c-.08.13-.22.18-.33.06l-1.78-1.75c-.07-.06,0-.11,0-.09l2.27,1C78.77,130.69,78.79,130.8,78.69,130.94Z"/><path class="cls-4" d="M83.36,127l-4.62-2.19a.26.26,0,0,1-.13-.36l.32-.69a.24.24,0,0,0-.12-.34l-.47-.22a.25.25,0,0,0-.35.12l-1.33,2.81a.28.28,0,0,0,.13.35l.45.21a.28.28,0,0,0,.36-.12l.33-.69a.29.29,0,0,1,.35-.13l4.63,2.19a.26.26,0,0,0,.35-.12l.22-.46A.28.28,0,0,0,83.36,127Z"/><path class="cls-4" d="M85.09,122.38l-5.9-1.85a.27.27,0,0,0-.32.18l-.15.49a.27.27,0,0,0,.17.33l5.89,1.85a.27.27,0,0,0,.32-.18l.15-.48A.28.28,0,0,0,85.09,122.38Z"/><path class="cls-4" d="M84.59,115.57l-2.4-.38a2.68,2.68,0,0,0-1.63.13,1.74,1.74,0,0,0-.86,1.34,1.69,1.69,0,0,0,.41,1.53,2.59,2.59,0,0,0,1.51.62l2.4.38a2.54,2.54,0,0,0,1.63-.14,1.94,1.94,0,0,0,.44-2.86A2.41,2.41,0,0,0,84.59,115.57Zm1,2c-.09.59-.44.72-1.38.58l-2.37-.37c-.94-.15-1.23-.39-1.14-1s.44-.72,1.38-.58l2.37.37C85.35,116.74,85.64,117,85.55,117.58Z"/><path class="cls-4" d="M86.85,112a.26.26,0,0,0-.28-.26l-3.48.11c-.12,0-.13-.05,0-.11l3.43-1.56a.39.39,0,0,0,.26-.39v-.5a.3.3,0,0,0-.27-.27l-6.16.2a.26.26,0,0,0-.26.28l0,.51a.26.26,0,0,0,.28.25l3.48-.11c.13,0,.14,0,0,.11l-3.45,1.58a.4.4,0,0,0-.25.38v.51a.24.24,0,0,0,.28.25l6.15-.2a.25.25,0,0,0,.26-.27Z"/><path class="cls-4" d="M81.44,101.77A1.43,1.43,0,1,0,80,100.34,1.43,1.43,0,0,0,81.44,101.77Z"/><path class="cls-4" d="M20,101.77a1.43,1.43,0,1,0-1.43-1.43A1.43,1.43,0,0,0,20,101.77Z"/><path class="cls-4" d="M79.27,83.44a40.51,40.51,0,1,0,11.87,28.65A40.24,40.24,0,0,0,79.27,83.44ZM77.82,139.3a38.48,38.48,0,1,1,11.27-27.21A38.22,38.22,0,0,1,77.82,139.3Z"/><polygon class="cls-4" points="43.46 104.18 39.41 104.18 39.41 94.87 36.24 94.87 36.24 107.06 43.46 107.06 43.46 104.18"/><polygon class="cls-4" points="63.49 123.95 58.48 117.09 55.45 117.09 55.45 129.28 58.62 129.28 58.62 122.45 63.64 129.28 66.66 129.28 66.66 117.09 63.49 117.09 63.49 123.95"/></g></g></svg>