<svg xmlns="http://www.w3.org/2000/svg" viewBox="0 0 537.36 740.42"><defs><style>.cls-1{fill:#fff;}</style></defs><g id="Layer_2" data-name="Layer 2"><g id="Layer_1-2" data-name="Layer 1"><path class="cls-1" d="M251,645.38l-1.73-.47A50.81,50.81,0,0,0,236,643.15c-27.73,0-48.64,20.83-48.64,48.45a48.31,48.31,0,0,0,13.93,34.58c9,9,21.31,13.87,34.71,13.87a51.74,51.74,0,0,0,13.31-1.72l1.74-.46a1.61,1.61,0,0,0,1.19-1.55v-13a1.61,1.61,0,0,0-1.61-1.61,1.37,1.37,0,0,0-.45.07l-2.95.87A39.85,39.85,0,0,1,236,724.26c-19.89,0-34.33-13.73-34.33-32.64S216.06,659,236,659a39.85,39.85,0,0,1,11.24,1.57l2.95.87a1.76,1.76,0,0,0,.45.07,1.61,1.61,0,0,0,1.61-1.61V647A1.63,1.63,0,0,0,251,645.38Z"/><path class="cls-1" d="M303.08,643.15c-26.77,0-47,20.91-47,48.63s20.19,48.64,47,48.64,47-20.91,47-48.64S329.85,643.15,303.08,643.15Zm0,83c-18.3,0-31.58-14.43-31.58-34.32s13.28-34.33,31.58-34.33,31.58,14.44,31.58,34.33S321.38,726.1,303.08,726.1Z"/><path class="cls-1" d="M227.61,453.42c0-27.73-20.19-48.63-47-48.63s-47,20.91-47,48.63,20.19,48.64,47,48.64S227.61,481.14,227.61,453.42Zm-47-34.33c18.3,0,31.58,14.44,31.58,34.33S199,487.74,180.65,487.74s-31.58-14.43-31.58-34.32S162.35,419.09,180.65,419.09Z"/><path class="cls-1" d="M387.59,500.08h12.55a1.61,1.61,0,0,0,1.55-2L377.9,408.21a1.61,1.61,0,0,0-1.55-1.19H360.1a1.6,1.6,0,0,0-1.55,1.19l-23.79,89.85a1.58,1.58,0,0,0,.28,1.39,1.6,1.6,0,0,0,1.27.63h12.06a1.61,1.61,0,0,0,1.57-1.28l3.4-16.51h29.38l3.28,16.5A1.64,1.64,0,0,0,387.59,500.08Zm-19.82-80.39h.76l11.62,50.4H356Z"/><path class="cls-1" d="M418.69,500l17.44,0c20.75,0,45-12.13,45-46.32,0-14.59-4.75-26.72-13.72-35.08-8-7.49-19.14-11.61-31.24-11.61L429,407H418.7a1.6,1.6,0,0,0-1.6,1.61v89.85A1.59,1.59,0,0,0,418.69,500Zm19.63-12.73h-6.41v-67.6h6.41c20.67,0,28,18.19,28,33.76C466.32,484.85,444.89,487.29,438.32,487.29Z"/><path class="cls-1" d="M102.14,500.06h13.59a1.6,1.6,0,0,0,1.6-1.6v-89.9a1.61,1.61,0,0,0-1.6-1.61H103.89a1.63,1.63,0,0,0-1.14.47,1.61,1.61,0,0,0-.47,1.14l.06,64.78L72.91,407.9a1.6,1.6,0,0,0-1.46-.95H57.85a1.61,1.61,0,0,0-1.6,1.61v89.9a1.6,1.6,0,0,0,1.6,1.6H69.69a1.6,1.6,0,0,0,1.6-1.6V433.53l29.38,65.59A1.61,1.61,0,0,0,102.14,500.06Z"/><path class="cls-1" d="M302.34,500.12h11.83a1.6,1.6,0,0,0,1.6-1.6v-89.9a1.61,1.61,0,0,0-1.6-1.61H300.6a1.63,1.63,0,0,0-1.46.93l-19,41-19-41a1.6,1.6,0,0,0-1.46-.93H246.17a1.61,1.61,0,0,0-1.6,1.61v89.9a1.6,1.6,0,0,0,1.6,1.6H258a1.6,1.6,0,0,0,1.6-1.6v-63.7L278.71,477a1.58,1.58,0,0,0,1.46.94,1.61,1.61,0,0,0,1.47-1l19.07-42.82v64.3A1.64,1.64,0,0,0,302.34,500.12Z"/><path class="cls-1" d="M294.61,368c5.12,9.39,13.41,14.56,23.35,14.56,15,0,25.5-10.46,25.5-25.43,0-14.16-11.5-23.4-20.74-30.84-7.19-5.78-12.87-10.35-12.87-16.35,0-5.68,4-9.35,10.32-9.35a12.47,12.47,0,0,1,9.25,4.15l1.15,1.2a1.61,1.61,0,0,0,1.15.49,1.66,1.66,0,0,0,.66-.14l9-4.09a1.6,1.6,0,0,0,.67-2.33l-1.5-2.27c-5.46-8.29-12.41-12.33-21.25-12.33-16,0-24.37,11.62-24.37,23.1,0,12.21,9.93,20.52,18.69,27.85,7.73,6.47,15,12.58,15,20.8,0,5.54-4,11.28-10.58,11.28-5.52,0-9.06-3.63-11.05-6.67L305.94,360a1.59,1.59,0,0,0-1.94-.6l-9.83,4.07a1.59,1.59,0,0,0-.89.94,1.61,1.61,0,0,0,.1,1.29Z"/><path class="cls-1" d="M356.32,302.29h14.3v76.65a1.59,1.59,0,0,0,1.59,1.59h11.63a1.59,1.59,0,0,0,1.59-1.59V302.29h14.3a1.59,1.59,0,0,0,1.59-1.59V289.07a1.59,1.59,0,0,0-1.59-1.59H356.32a1.59,1.59,0,0,0-1.59,1.59V300.7A1.59,1.59,0,0,0,356.32,302.29Z"/><path class="cls-1" d="M137.63,380.53H281.18a1.51,1.51,0,0,0,1.36-2.17l-5.66-11.68a1.74,1.74,0,0,0-1.55-1H150.85V289.05a1.59,1.59,0,0,0-1.59-1.59H137.63a1.59,1.59,0,0,0-1.59,1.59v89.88A1.6,1.6,0,0,0,137.63,380.53Z"/><path class="cls-1" d="M178.57,348.92a1.6,1.6,0,0,0,1.54,1.2h12.55a1.59,1.59,0,0,0,1.53-2l-.85-3a41,41,0,0,1-1.52-11.25c0-19.89,13.28-34.33,31.58-34.33S255,314,255,333.87a41,41,0,0,1-1.52,11.25l-.85,3a1.6,1.6,0,0,0,.26,1.4,1.58,1.58,0,0,0,1.27.63h12.51a1.59,1.59,0,0,0,1.54-1.19l.46-1.74a52.43,52.43,0,0,0,1.71-13.32c0-27.73-20.19-48.63-47-48.63s-47,20.91-47,48.63a53,53,0,0,0,1.67,13.3Z"/><path class="cls-1" d="M42.18,569.64c4.63-2.54,11-9.93,11-20.07,0-7.55-2.91-13.45-8.66-17.54-5.06-3.6-12.17-5.58-20-5.58H1.6a1.6,1.6,0,0,0-1.6,1.6v89.27a1.6,1.6,0,0,0,1.6,1.6h26c17.89,0,28.56-9.63,28.56-25.77C56.16,580.71,47.25,572.54,42.18,569.64Zm-19.45-4-6.75,0V540.32h6.8c12.57,0,14.45,7.91,14.45,12.62C37.23,563.41,29.34,565.6,22.73,565.6Zm-6.75,12h8.15c10.2,0,16.05,5.08,16.05,13.93,0,7.92-6.08,13.46-14.78,13.46H16V577.58Z"/><path class="cls-1" d="M117,579.39l2.63-1A25,25,0,0,0,136,554.66c0-6.6-2.21-28.15-30.71-28.15l-24.9,0a1.6,1.6,0,0,0-1.6,1.6v89.27a1.6,1.6,0,0,0,1.6,1.6H93.2a1.6,1.6,0,0,0,1.6-1.6V580.39H103l19.1,37.67a1.6,1.6,0,0,0,1.43.88h13.81a1.61,1.61,0,0,0,1.38-2.42Zm-22.16-39h10c9.13,0,15.27,5.74,15.27,14.28,0,9.52-7.83,13.78-15.58,13.78H94.8Z"/><path class="cls-1" d="M205.61,617.33V607.05a1.6,1.6,0,0,0-1.6-1.6H178V578.4h20.09a1.6,1.6,0,0,0,1.6-1.6V566.53a1.6,1.6,0,0,0-1.6-1.6H178v-25h26a1.6,1.6,0,0,0,1.6-1.6V528.07a1.6,1.6,0,0,0-1.6-1.6H163.58a1.6,1.6,0,0,0-1.6,1.6v89.27a1.6,1.6,0,0,0,1.6,1.6H204A1.62,1.62,0,0,0,205.61,617.33Z"/><path class="cls-1" d="M237.77,526.48h-12.5a1.57,1.57,0,0,0-1.24.59,1.62,1.62,0,0,0-.33,1.34l18.14,89.27a1.61,1.61,0,0,0,1.57,1.29h16.31a1.66,1.66,0,0,0,1.64-1.37l10.94-60.31,10.94,60.31a1.66,1.66,0,0,0,1.64,1.37H301.2a1.6,1.6,0,0,0,1.57-1.29l18.14-89.27a1.56,1.56,0,0,0-.33-1.33,1.62,1.62,0,0,0-1.24-.59h-12.5a1.66,1.66,0,0,0-1.64,1.37l-12.86,71.48L279,527.84a1.67,1.67,0,0,0-1.64-1.36H267.27a1.67,1.67,0,0,0-1.64,1.36L252.21,599.3l-12.8-71.44A1.65,1.65,0,0,0,237.77,526.48Z"/><path class="cls-1" d="M356.47,526.46H343.58a1.6,1.6,0,0,0-1.6,1.6v89.27a1.6,1.6,0,0,0,1.6,1.6h12.89a1.6,1.6,0,0,0,1.6-1.6V528.06A1.59,1.59,0,0,0,356.47,526.46Z"/><path class="cls-1" d="M535.76,564.83h-30a1.6,1.6,0,0,0-1.6,1.6V576.7a1.6,1.6,0,0,0,1.6,1.6h16.12v2.39c0,17.19-6.53,26.27-18.87,26.27-12.15,0-19.13-12.33-19.13-33.82,0-22.83,6.38-34.9,18.46-34.9,8.51,0,12.05,6.49,13.17,9.28a1.58,1.58,0,0,0,1.48,1H530.3a1.62,1.62,0,0,0,1.26-.6,1.58,1.58,0,0,0,.31-1.34,29.43,29.43,0,0,0-6.08-12.28c-3.83-4.57-11-10-23.17-10-21.75,0-34.73,18.2-34.73,48.68,0,9.4,1.39,22.82,8,33.37,6.06,9.65,15.14,14.54,27,14.54,22.62,0,34.45-20.32,34.45-40.39V566.42A1.6,1.6,0,0,0,535.76,564.83Z"/><path class="cls-1" d="M443.23,526.46H431.48a1.6,1.6,0,0,0-1.6,1.6l.06,64.24-29.2-64.9a1.61,1.61,0,0,0-1.46-.94H385.79a1.6,1.6,0,0,0-1.6,1.6v89.21a1.6,1.6,0,0,0,1.6,1.6h11.74a1.6,1.6,0,0,0,1.6-1.6v-64.4l29.14,65a1.6,1.6,0,0,0,1.46,1h13.49a1.6,1.6,0,0,0,1.6-1.6V528.06A1.59,1.59,0,0,0,443.23,526.46Z"/><path class="cls-1" d="M334.42,168.8S313,181.69,279.61,181.69c22.11,0,48.43-20.38,48.43-20.38h11s-.48,5.74,1.12,5.74c1.08,0,2.22-2.09,2.74-3.25,6.25-13.77,3.35-17.48-8.08-17.48h-4.93c0-7.32-15.25-9.76-28.05-9.76H226.21a535.52,535.52,0,0,0,63.61-7.75L146.17,0S129.5,27.5,167.31,47l-33.75-5.08s0,25.31,38.42,27.44L146.37,79.94s13.52,16.11,31.92,10.57c0,0-3.17,26.31,28.93,46H127.8l19.11,45.13L205.26,162s22.32,8.42,44,14.26h0s29,44.29,78.74,40.33c0,0-12.2,11-1.22,20.74l15.86-11s.92,26.83,26.83,27.75l-4.57-25.31s29.58,25.31,44.71,7.41Z"/><path class="cls-1" d="M365.29,81.92l.59,9.65h-4.22l.59-9.65A21.92,21.92,0,0,0,339,58.7l-9.65.59V55.07l9.65.59a21.92,21.92,0,0,0,23.22-23.22l-.59-9.65h4.22l-.59,9.65a21.92,21.92,0,0,0,23.22,23.22l9.65-.59v4.22l-9.65-.59A21.92,21.92,0,0,0,365.29,81.92Z"/></g></g></svg>