<svg xmlns="http://www.w3.org/2000/svg" viewBox="0 0 180 52.02"><defs><style>.cls-1{fill:#cccccf;}</style></defs><g id="Layer_2" data-name="Layer 2"><g id="Layer_1-2" data-name="Layer 1"><path class="cls-1" d="M119.18,11.67C119.18,5,114.34,0,107.91,0S96.65,5,96.65,11.67s4.84,11.67,11.26,11.67S119.18,18.32,119.18,11.67ZM107.91,3.44c4.39,0,7.58,3.46,7.58,8.23s-3.19,8.24-7.58,8.24-7.57-3.47-7.57-8.24S103.52,3.44,107.91,3.44Z"/><path class="cls-1" d="M157.56,22.87h3a.4.4,0,0,0,.3-.15.41.41,0,0,0,.07-.34L155.24.83a.39.39,0,0,0-.37-.29H151a.4.4,0,0,0-.38.29l-5.7,21.55a.39.39,0,0,0,.37.49h2.89a.38.38,0,0,0,.38-.31l.82-4h7.05l.78,4A.39.39,0,0,0,157.56,22.87ZM152.81,3.58H153l2.79,12.09H150Z"/><path class="cls-1" d="M165,22.85h4.18c5,0,10.79-2.91,10.79-11.12a11.12,11.12,0,0,0-3.29-8.41,10.89,10.89,0,0,0-7.5-2.79H165a.38.38,0,0,0-.39.39V22.47A.38.38,0,0,0,165,22.85Zm4.7-3.05H168.2V3.58h1.53c5,0,6.72,4.36,6.72,8.1C176.45,19.21,171.31,19.8,169.73,19.8Z"/><path class="cls-1" d="M89.08,22.86h3.26a.38.38,0,0,0,.38-.38V.91a.39.39,0,0,0-.38-.39H89.5a.4.4,0,0,0-.27.12.36.36,0,0,0-.12.27l0,15.54L82.07.75a.4.4,0,0,0-.36-.23H78.45a.39.39,0,0,0-.38.39V22.48a.38.38,0,0,0,.38.38h2.84a.39.39,0,0,0,.39-.38V6.9l7,15.73A.37.37,0,0,0,89.08,22.86Z"/><path class="cls-1" d="M137.11,22.88H140a.38.38,0,0,0,.38-.39V.92A.38.38,0,0,0,140,.54h-3.26a.39.39,0,0,0-.35.22l-4.55,9.84L127.24.76a.39.39,0,0,0-.35-.22h-3.26a.38.38,0,0,0-.38.38V22.49a.38.38,0,0,0,.38.39h2.84a.38.38,0,0,0,.39-.39V7.21l4.58,10.13a.39.39,0,0,0,.71,0l4.57-10.28V22.49A.39.39,0,0,0,137.11,22.88Z"/><path class="cls-1" d="M38,19.85a6.23,6.23,0,0,0,5.6,3.49,5.84,5.84,0,0,0,6.12-6.1c0-3.4-2.76-5.61-5-7.4C43.06,8.46,41.7,7.36,41.7,5.92a2.21,2.21,0,0,1,2.47-2.24,3,3,0,0,1,2.22,1l.28.29a.4.4,0,0,0,.27.12.29.29,0,0,0,.16,0l2.16-1a.39.39,0,0,0,.21-.24.4.4,0,0,0,0-.32L49.06,3A5.84,5.84,0,0,0,44,0a5.51,5.51,0,0,0-5.85,5.54c0,2.93,2.38,4.92,4.49,6.68,1.85,1.56,3.6,3,3.6,5a2.6,2.6,0,0,1-2.54,2.7A3.2,3.2,0,0,1,41,18.32l-.26-.39a.36.36,0,0,0-.31-.17l-.15,0-2.36,1a.35.35,0,0,0-.21.22.37.37,0,0,0,0,.31Z"/><path class="cls-1" d="M52.85,4.09h3.43V22.48a.39.39,0,0,0,.39.38h2.79a.38.38,0,0,0,.38-.38V4.09h3.43a.38.38,0,0,0,.38-.38V.92a.39.39,0,0,0-.38-.39H52.85a.39.39,0,0,0-.38.39V3.71A.38.38,0,0,0,52.85,4.09Z"/><path class="cls-1" d="M.38,22.86H34.82a.36.36,0,0,0,.31-.17.36.36,0,0,0,0-.35l-1.36-2.8a.41.41,0,0,0-.37-.23H3.55V.92A.38.38,0,0,0,3.17.53H.38A.38.38,0,0,0,0,.92V22.48A.38.38,0,0,0,.38,22.86Z"/><path class="cls-1" d="M10.21,15.28a.38.38,0,0,0,.37.29h3a.38.38,0,0,0,.3-.15.38.38,0,0,0,.06-.34l-.2-.71a10,10,0,0,1-.36-2.7c0-4.77,3.18-8.24,7.57-8.24s7.58,3.47,7.58,8.24a10,10,0,0,1-.36,2.7l-.21.71a.41.41,0,0,0,.06.34.42.42,0,0,0,.31.15h3a.38.38,0,0,0,.37-.29l.11-.42a12.57,12.57,0,0,0,.41-3.19C32.23,5,27.39,0,21,0S9.7,5,9.7,11.67a12.56,12.56,0,0,0,.4,3.19Z"/><path class="cls-1" d="M156.55,29.51l-.41-.11A11.9,11.9,0,0,0,153,29a11.24,11.24,0,0,0-11.52,11.48A11.26,11.26,0,0,0,153,51.93a12.2,12.2,0,0,0,3.15-.41l.42-.11a.39.39,0,0,0,.28-.37V48a.38.38,0,0,0-.38-.39l-.11,0-.7.2a9.24,9.24,0,0,1-2.66.38c-4.71,0-8.13-3.26-8.13-7.73s3.42-7.73,8.13-7.73a9.29,9.29,0,0,1,2.66.37l.7.2.11,0a.38.38,0,0,0,.38-.38V29.88A.38.38,0,0,0,156.55,29.51Z"/><path class="cls-1" d="M168.88,29c-6.34,0-11.12,4.95-11.12,11.52S162.54,52,168.88,52,180,47.07,180,40.5,175.22,29,168.88,29Zm0,19.64c-4.33,0-7.48-3.41-7.48-8.12s3.15-8.13,7.48-8.13,7.48,3.42,7.48,8.13S173.21,48.62,168.88,48.62Z"/><path class="cls-1" d="M10,39.8a5.62,5.62,0,0,0,2.61-4.75,4.83,4.83,0,0,0-2-4.16,8.26,8.26,0,0,0-4.74-1.32H.38A.38.38,0,0,0,0,30V51.09a.38.38,0,0,0,.38.38H6.53c4.24,0,6.77-2.28,6.77-6.1A6.66,6.66,0,0,0,10,39.8Zm-4.61-1H3.78v-6H5.39c3,0,3.43,1.87,3.43,3C8.82,38.32,7,38.84,5.38,38.84Zm-1.6,2.84H5.71c2.42,0,3.8,1.2,3.8,3.3A3.21,3.21,0,0,1,6,48.16H3.78Z"/><path class="cls-1" d="M27.69,42.11l.63-.24a5.93,5.93,0,0,0,3.89-5.62c0-1.56-.52-6.66-7.27-6.66H19.05a.38.38,0,0,0-.38.38V51.1a.39.39,0,0,0,.38.38h3a.38.38,0,0,0,.38-.38V42.35h1.94l4.53,8.92a.36.36,0,0,0,.33.21h3.28a.38.38,0,0,0,.32-.58Zm-5.24-9.23h2.36a3.32,3.32,0,0,1,3.62,3.38c0,2.25-1.86,3.26-3.69,3.26H22.45Z"/><path class="cls-1" d="M48.68,51.09V48.66a.39.39,0,0,0-.38-.39H42.14v-6.4h4.75a.38.38,0,0,0,.38-.38V39.06a.38.38,0,0,0-.38-.38H42.14V32.76H48.3a.38.38,0,0,0,.38-.38V29.94a.39.39,0,0,0-.38-.38H38.73a.38.38,0,0,0-.38.38V51.08a.38.38,0,0,0,.38.38H48.3A.37.37,0,0,0,48.68,51.09Z"/><path class="cls-1" d="M56.3,29.58h-3a.37.37,0,0,0-.29.14A.35.35,0,0,0,53,30l4.29,21.14a.38.38,0,0,0,.37.31H61.5a.39.39,0,0,0,.38-.33l2.59-14.28,2.59,14.28a.4.4,0,0,0,.39.33h3.87a.38.38,0,0,0,.37-.31L76,30a.35.35,0,0,0-.08-.31.37.37,0,0,0-.29-.14h-3a.39.39,0,0,0-.39.32l-3,16.93L66.06,29.9a.4.4,0,0,0-.39-.32H63.28a.4.4,0,0,0-.39.32L59.71,46.82l-3-16.92A.38.38,0,0,0,56.3,29.58Z"/><path class="cls-1" d="M84.41,29.57H81.35A.39.39,0,0,0,81,30V51.09a.38.38,0,0,0,.38.38h3.06a.38.38,0,0,0,.38-.38V30A.38.38,0,0,0,84.41,29.57Z"/><path class="cls-1" d="M126.86,38.66h-7.11a.38.38,0,0,0-.38.38v2.43a.38.38,0,0,0,.38.38h3.82v.57c0,4.07-1.55,6.22-4.47,6.22s-4.53-2.92-4.53-8c0-5.41,1.51-8.27,4.37-8.27a3.32,3.32,0,0,1,3.12,2.2.38.38,0,0,0,.35.23h3.16a.39.39,0,0,0,.3-.14.41.41,0,0,0,.07-.32A6.74,6.74,0,0,0,119,29.07c-5.15,0-8.23,4.31-8.23,11.52a15.3,15.3,0,0,0,1.9,7.91,7.12,7.12,0,0,0,6.39,3.44c5.36,0,8.16-4.81,8.16-9.56V39.05A.38.38,0,0,0,126.86,38.66Z"/><path class="cls-1" d="M105,29.57h-2.78a.39.39,0,0,0-.27.11.4.4,0,0,0-.11.27V45.16L94.89,29.8a.38.38,0,0,0-.35-.23H91.35A.38.38,0,0,0,91,30V51.08a.38.38,0,0,0,.38.37h2.78a.38.38,0,0,0,.38-.37V35.83l6.9,15.4a.37.37,0,0,0,.34.22H105a.38.38,0,0,0,.38-.37V30A.38.38,0,0,0,105,29.57Z"/></g></g></svg>