<svg xmlns="http://www.w3.org/2000/svg" viewBox="0 0 150 19.45"><defs><style>.cls-1{fill:#fff;}</style></defs><g id="Layer_2" data-name="Layer 2"><g id="Layer_1-2" data-name="Layer 1"><path class="cls-1" d="M99.32,9.73a9.4,9.4,0,1,0-18.78,0,9.4,9.4,0,1,0,18.78,0ZM89.93,2.86c3.66,0,6.31,2.89,6.31,6.87s-2.65,6.86-6.31,6.86-6.32-2.89-6.32-6.86S86.27,2.86,89.93,2.86Z"/><path class="cls-1" d="M131.3,19.06h2.51a.33.33,0,0,0,.26-.13.31.31,0,0,0,.05-.28l-4.75-18a.33.33,0,0,0-.31-.24H125.8a.31.31,0,0,0-.3.24l-4.76,18a.29.29,0,0,0,.06.28.31.31,0,0,0,.25.13h2.41a.33.33,0,0,0,.32-.26l.67-3.3h5.88l.66,3.3A.32.32,0,0,0,131.3,19.06ZM127.34,3h.15l2.32,10.08H125Z"/><path class="cls-1" d="M137.52,19H141c4.15,0,9-2.43,9-9.26a9.31,9.31,0,0,0-2.74-7A9.13,9.13,0,0,0,141,.44h-3.49a.32.32,0,0,0-.32.32v18A.32.32,0,0,0,137.52,19Zm3.92-2.54h-1.28V3h1.28c4.14,0,5.6,3.64,5.6,6.75C147,16,142.76,16.5,141.44,16.5Z"/><path class="cls-1" d="M74.23,19.05H77a.32.32,0,0,0,.32-.32V.76A.32.32,0,0,0,77,.44H74.58a.35.35,0,0,0-.23.09.36.36,0,0,0-.09.23v13L68.39.63a.32.32,0,0,0-.3-.19H65.38a.32.32,0,0,0-.32.32v18a.32.32,0,0,0,.32.32h2.36a.32.32,0,0,0,.32-.32v-13l5.88,13.11A.3.3,0,0,0,74.23,19.05Z"/><path class="cls-1" d="M114.26,19.07h2.36a.32.32,0,0,0,.32-.33V.77a.32.32,0,0,0-.32-.32h-2.71a.31.31,0,0,0-.29.19l-3.79,8.19L106,.64a.3.3,0,0,0-.29-.19H103a.32.32,0,0,0-.32.32v18a.32.32,0,0,0,.32.33h2.36a.33.33,0,0,0,.33-.33V6l3.82,8.44a.3.3,0,0,0,.29.19.33.33,0,0,0,.29-.19l3.82-8.56V18.74A.32.32,0,0,0,114.26,19.07Z"/><path class="cls-1" d="M31.7,16.54a5.2,5.2,0,0,0,4.67,2.91,4.87,4.87,0,0,0,5.1-5.08c0-2.83-2.3-4.68-4.15-6.17-1.44-1.15-2.57-2.07-2.57-3.27a1.84,1.84,0,0,1,2.06-1.86,2.48,2.48,0,0,1,1.85.82l.23.24a.29.29,0,0,0,.23.1.28.28,0,0,0,.13,0l1.8-.82a.29.29,0,0,0,.17-.2.3.3,0,0,0,0-.26l-.3-.46A4.87,4.87,0,0,0,36.63,0a4.59,4.59,0,0,0-4.87,4.62c0,2.44,2,4.1,3.74,5.57,1.54,1.29,3,2.51,3,4.16a2.17,2.17,0,0,1-2.12,2.25,2.66,2.66,0,0,1-2.21-1.33L34,14.94a.31.31,0,0,0-.26-.14l-.13,0-2,.82a.31.31,0,0,0-.16.44Z"/><path class="cls-1" d="M44,3.41H46.9V18.73a.32.32,0,0,0,.32.32h2.33a.32.32,0,0,0,.32-.32V3.41h2.85A.32.32,0,0,0,53,3.09V.76a.31.31,0,0,0-.32-.31H44.05a.31.31,0,0,0-.32.31V3.09A.31.31,0,0,0,44,3.41Z"/><path class="cls-1" d="M.32,19.05H29a.31.31,0,0,0,.26-.14.3.3,0,0,0,0-.29l-1.13-2.34a.36.36,0,0,0-.31-.19H3V.76A.31.31,0,0,0,2.64.45H.32A.31.31,0,0,0,0,.76v18A.32.32,0,0,0,.32,19.05Z"/><path class="cls-1" d="M8.51,12.73a.31.31,0,0,0,.3.24h2.51a.32.32,0,0,0,.26-.12.32.32,0,0,0,.05-.28l-.17-.6a8.19,8.19,0,0,1-.3-2.24c0-4,2.65-6.87,6.31-6.87s6.31,2.89,6.31,6.87a8.19,8.19,0,0,1-.3,2.24l-.17.6a.31.31,0,0,0,.31.4h2.5a.33.33,0,0,0,.31-.24l.09-.34a10.8,10.8,0,0,0,.34-2.67,9.4,9.4,0,1,0-18.78,0,10.65,10.65,0,0,0,.33,2.66Z"/></g></g></svg>