<?xml version="1.0" encoding="UTF-8"?><svg xmlns="http://www.w3.org/2000/svg" xmlns:xlink="http://www.w3.org/1999/xlink" viewBox="0 0 1400 468.6"><defs><style>.e{fill:none;}.f{fill:#bfbfc2;}.g{fill:url(#d);opacity:.5;}</style><pattern id="d" x="0" y="0" width="562.39" height="479.56" patternTransform="translate(5918.32 1801.78)" patternUnits="userSpaceOnUse" viewBox="0 0 562.39 479.56"><g><rect class="e" y="0" width="562.39" height="479.56"/><circle class="f" cx="107.62" cy="66.85" r="1.5"/><circle class="f" cx="142.33" cy="66.85" r="1.5"/><circle class="f" cx="177.05" cy="66.85" r="1.5"/><circle class="f" cx="3.23" cy="3.47" r="1.5"/><circle class="f" cx="38.18" cy="3.47" r="1.5"/><circle class="f" cx="73.13" cy="3.47" r="1.5"/><circle class="f" cx="108.08" cy="3.47" r="1.5"/><circle class="f" cx="143.03" cy="3.47" r="1.5"/><circle class="f" cx="177.98" cy="3.47" r="1.5"/><circle class="f" cx="212.93" cy="3.47" r="1.5"/><circle class="f" cx="247.88" cy="3.47" r="1.5"/><circle class="f" cx="282.83" cy="3.47" r="1.5"/><circle class="f" cx="317.78" cy="3.47" r="1.5"/><circle class="f" cx="352.73" cy="3.47" r="1.5"/><circle class="f" cx="387.68" cy="3.47" r="1.5"/><circle class="f" cx="422.63" cy="3.47" r="1.5"/><circle class="f" cx="457.58" cy="3.47" r="1.5"/><circle class="f" cx="492.53" cy="3.47" r="1.5"/><circle class="f" cx="527.48" cy="3.47" r="1.5"/><circle class="f" cx="3.23" cy="34.91" r="1.5"/><circle class="f" cx="38.18" cy="34.91" r="1.5"/><circle class="f" cx="73.13" cy="34.91" r="1.5"/><circle class="f" cx="108.08" cy="34.91" r="1.5"/><circle class="f" cx="143.03" cy="34.91" r="1.5"/><circle class="f" cx="177.98" cy="34.91" r="1.5"/><circle class="f" cx="212.93" cy="34.91" r="1.5"/><circle class="f" cx="247.88" cy="34.91" r="1.5"/><circle class="f" cx="282.83" cy="34.91" r="1.5"/><circle class="f" cx="317.78" cy="34.91" r="1.5"/><circle class="f" cx="352.73" cy="34.91" r="1.5"/><circle class="f" cx="387.68" cy="34.91" r="1.5"/><circle class="f" cx="422.63" cy="34.91" r="1.5"/><circle class="f" cx="457.58" cy="34.91" r="1.5"/><circle class="f" cx="492.53" cy="34.91" r="1.5"/><circle class="f" cx="527.48" cy="34.91" r="1.5"/><circle class="f" cx="3.23" cy="66.85" r="1.5"/><circle class="f" cx="38.18" cy="66.85" r="1.5"/><circle class="f" cx="73.13" cy="66.85" r="1.5"/><circle class="f" cx="108.08" cy="66.85" r="1.5"/><circle class="f" cx="143.03" cy="66.85" r="1.5"/><circle class="f" cx="212.93" cy="66.85" r="1.5"/><circle class="f" cx="247.88" cy="66.85" r="1.5"/><circle class="f" cx="282.83" cy="66.85" r="1.5"/><circle class="f" cx="317.78" cy="66.85" r="1.5"/><circle class="f" cx="352.73" cy="66.85" r="1.5"/><circle class="f" cx="387.68" cy="66.85" r="1.5"/><circle class="f" cx="422.63" cy="66.85" r="1.5"/><circle class="f" cx="457.58" cy="66.85" r="1.5"/><circle class="f" cx="492.53" cy="66.85" r="1.5"/><circle class="f" cx="527.48" cy="66.85" r="1.5"/><circle class="f" cx="3.23" cy="98.79" r="1.5"/><circle class="f" cx="38.18" cy="98.79" r="1.5"/><circle class="f" cx="73.13" cy="98.79" r="1.5"/><circle class="f" cx="108.08" cy="98.79" r="1.5"/><circle class="f" cx="143.03" cy="98.79" r="1.5"/><circle class="f" cx="177.98" cy="98.79" r="1.5"/><circle class="f" cx="212.93" cy="98.79" r="1.5"/><circle class="f" cx="247.88" cy="98.79" r="1.5"/><circle class="f" cx="282.83" cy="98.79" r="1.5"/><circle class="f" cx="317.78" cy="98.79" r="1.5"/><circle class="f" cx="352.73" cy="98.79" r="1.5"/><circle class="f" cx="387.68" cy="98.79" r="1.5"/><circle class="f" cx="422.63" cy="98.79" r="1.5"/><circle class="f" cx="457.58" cy="98.79" r="1.5"/><circle class="f" cx="492.53" cy="98.79" r="1.5"/><circle class="f" cx="527.48" cy="98.79" r="1.5"/><circle class="f" cx="3.23" cy="130.73" r="1.5"/><circle class="f" cx="38.18" cy="130.73" r="1.5"/><circle class="f" cx="73.13" cy="130.73" r="1.5"/><circle class="f" cx="108.08" cy="130.73" r="1.5"/><circle class="f" cx="143.03" cy="130.73" r="1.5"/><circle class="f" cx="177.98" cy="130.73" r="1.5"/><circle class="f" cx="212.93" cy="130.73" r="1.5"/><circle class="f" cx="247.88" cy="130.73" r="1.5"/><circle class="f" cx="282.83" cy="130.73" r="1.5"/><circle class="f" cx="317.78" cy="130.73" r="1.5"/><circle class="f" cx="352.73" cy="130.73" r="1.5"/><circle class="f" cx="387.68" cy="130.73" r="1.5"/><circle class="f" cx="422.63" cy="130.73" r="1.5"/><circle class="f" cx="457.58" cy="130.73" r="1.5"/><circle class="f" cx="492.53" cy="130.73" r="1.5"/><circle class="f" cx="527.48" cy="130.73" r="1.5"/><circle class="f" cx="3.23" cy="162.68" r="1.5"/><circle class="f" cx="38.18" cy="162.68" r="1.5"/><circle class="f" cx="73.13" cy="162.68" r="1.5"/><circle class="f" cx="108.08" cy="162.68" r="1.5"/><circle class="f" cx="143.03" cy="162.68" r="1.5"/><circle class="f" cx="177.98" cy="162.68" r="1.5"/><circle class="f" cx="212.93" cy="162.68" r="1.5"/><circle class="f" cx="247.88" cy="162.68" r="1.5"/><circle class="f" cx="282.83" cy="162.68" r="1.5"/><circle class="f" cx="317.78" cy="162.68" r="1.5"/><circle class="f" cx="352.73" cy="162.68" r="1.5"/><circle class="f" cx="387.68" cy="162.68" r="1.5"/><circle class="f" cx="422.63" cy="162.68" r="1.5"/><circle class="f" cx="457.58" cy="162.68" r="1.5"/><circle class="f" cx="492.53" cy="162.68" r="1.5"/><circle class="f" cx="527.48" cy="162.68" r="1.5"/><circle class="f" cx="3.23" cy="194.62" r="1.5"/><circle class="f" cx="38.18" cy="194.62" r="1.5"/><circle class="f" cx="73.13" cy="194.62" r="1.5"/><circle class="f" cx="108.08" cy="194.62" r="1.5"/><circle class="f" cx="143.03" cy="194.62" r="1.5"/><circle class="f" cx="177.98" cy="194.62" r="1.5"/><circle class="f" cx="212.93" cy="194.62" r="1.5"/><circle class="f" cx="247.88" cy="194.62" r="1.5"/><circle class="f" cx="282.83" cy="194.62" r="1.5"/><circle class="f" cx="317.78" cy="194.62" r="1.5"/><circle class="f" cx="352.73" cy="194.62" r="1.5"/><circle class="f" cx="387.68" cy="194.62" r="1.5"/><circle class="f" cx="422.63" cy="194.62" r="1.5"/><circle class="f" cx="457.58" cy="194.62" r="1.5"/><circle class="f" cx="492.53" cy="194.62" r="1.5"/><circle class="f" cx="527.48" cy="194.62" r="1.5"/><circle class="f" cx="3.23" cy="226.56" r="1.5"/><circle class="f" cx="38.18" cy="226.56" r="1.5"/><circle class="f" cx="73.13" cy="226.56" r="1.5"/><circle class="f" cx="108.08" cy="226.56" r="1.5"/><circle class="f" cx="143.03" cy="226.56" r="1.5"/><circle class="f" cx="177.98" cy="226.56" r="1.5"/><circle class="f" cx="212.93" cy="226.56" r="1.5"/><circle class="f" cx="247.88" cy="226.56" r="1.5"/><circle class="f" cx="282.83" cy="226.56" r="1.5"/><circle class="f" cx="317.78" cy="226.56" r="1.5"/><circle class="f" cx="352.73" cy="226.56" r="1.5"/><circle class="f" cx="387.68" cy="226.56" r="1.5"/><circle class="f" cx="422.63" cy="226.56" r="1.5"/><circle class="f" cx="457.58" cy="226.56" r="1.5"/><circle class="f" cx="492.53" cy="226.56" r="1.5"/><circle class="f" cx="527.48" cy="226.56" r="1.5"/><circle class="f" cx="3.23" cy="258.5" r="1.5"/><circle class="f" cx="38.18" cy="258.5" r="1.5"/><circle class="f" cx="73.13" cy="258.5" r="1.5"/><circle class="f" cx="108.08" cy="258.5" r="1.5"/><circle class="f" cx="143.03" cy="258.5" r="1.5"/><circle class="f" cx="177.98" cy="258.5" r="1.5"/><circle class="f" cx="212.93" cy="258.5" r="1.5"/><circle class="f" cx="247.88" cy="258.5" r="1.5"/><circle class="f" cx="282.83" cy="258.5" r="1.5"/><circle class="f" cx="317.78" cy="258.5" r="1.5"/><circle class="f" cx="352.73" cy="258.5" r="1.5"/><circle class="f" cx="387.68" cy="258.5" r="1.5"/><circle class="f" cx="422.63" cy="258.5" r="1.5"/><circle class="f" cx="457.58" cy="258.5" r="1.5"/><circle class="f" cx="492.53" cy="258.5" r="1.5"/><circle class="f" cx="527.48" cy="258.5" r="1.5"/><circle class="f" cx="3.23" cy="290.44" r="1.5"/><circle class="f" cx="38.18" cy="290.44" r="1.5"/><circle class="f" cx="73.13" cy="290.44" r="1.5"/><circle class="f" cx="108.08" cy="290.44" r="1.5"/><circle class="f" cx="143.03" cy="290.44" r="1.5"/><circle class="f" cx="177.98" cy="290.44" r="1.5"/><circle class="f" cx="212.93" cy="290.44" r="1.5"/><circle class="f" cx="247.88" cy="290.44" r="1.5"/><circle class="f" cx="282.83" cy="290.44" r="1.5"/><circle class="f" cx="317.78" cy="290.44" r="1.5"/><circle class="f" cx="352.73" cy="290.44" r="1.5"/><circle class="f" cx="387.68" cy="290.44" r="1.5"/><circle class="f" cx="422.63" cy="290.44" r="1.5"/><circle class="f" cx="457.58" cy="290.44" r="1.5"/><circle class="f" cx="492.53" cy="290.44" r="1.5"/><circle class="f" cx="527.48" cy="290.44" r="1.5"/><circle class="f" cx="3.23" cy="322.38" r="1.5"/><circle class="f" cx="38.18" cy="322.38" r="1.5"/><circle class="f" cx="73.13" cy="322.38" r="1.5"/><circle class="f" cx="108.08" cy="322.38" r="1.5"/><circle class="f" cx="143.03" cy="322.38" r="1.5"/><circle class="f" cx="177.98" cy="322.38" r="1.5"/><circle class="f" cx="212.93" cy="322.38" r="1.5"/><circle class="f" cx="247.88" cy="322.38" r="1.5"/><circle class="f" cx="282.83" cy="322.38" r="1.5"/><circle class="f" cx="317.78" cy="322.38" r="1.5"/><circle class="f" cx="352.73" cy="322.38" r="1.5"/><circle class="f" cx="387.68" cy="322.38" r="1.5"/><circle class="f" cx="422.63" cy="322.38" r="1.5"/><circle class="f" cx="457.58" cy="322.38" r="1.5"/><circle class="f" cx="492.53" cy="322.38" r="1.5"/><circle class="f" cx="527.48" cy="322.38" r="1.5"/><circle class="f" cx="3.23" cy="354.33" r="1.5"/><circle class="f" cx="38.18" cy="354.33" r="1.5"/><circle class="f" cx="73.13" cy="354.33" r="1.5"/><circle class="f" cx="108.08" cy="354.33" r="1.5"/><circle class="f" cx="143.03" cy="354.33" r="1.5"/><circle class="f" cx="177.98" cy="354.33" r="1.5"/><circle class="f" cx="212.93" cy="354.33" r="1.5"/><circle class="f" cx="247.88" cy="354.33" r="1.5"/><circle class="f" cx="282.83" cy="354.33" r="1.5"/><circle class="f" cx="317.78" cy="354.33" r="1.5"/><circle class="f" cx="352.73" cy="354.33" r="1.5"/><circle class="f" cx="387.68" cy="354.33" r="1.5"/><circle class="f" cx="422.63" cy="354.33" r="1.5"/><circle class="f" cx="457.58" cy="354.33" r="1.5"/><circle class="f" cx="492.53" cy="354.33" r="1.5"/><circle class="f" cx="527.48" cy="354.33" r="1.5"/><circle class="f" cx="3.23" cy="386.27" r="1.5"/><circle class="f" cx="38.18" cy="386.27" r="1.5"/><circle class="f" cx="73.13" cy="386.27" r="1.5"/><circle class="f" cx="108.08" cy="386.27" r="1.5"/><circle class="f" cx="143.03" cy="386.27" r="1.5"/><circle class="f" cx="177.98" cy="386.27" r="1.5"/><circle class="f" cx="212.93" cy="386.27" r="1.5"/><circle class="f" cx="247.88" cy="386.27" r="1.5"/><circle class="f" cx="282.83" cy="386.27" r="1.5"/><circle class="f" cx="317.78" cy="386.27" r="1.5"/><circle class="f" cx="352.73" cy="386.27" r="1.5"/><circle class="f" cx="387.68" cy="386.27" r="1.5"/><circle class="f" cx="422.63" cy="386.27" r="1.5"/><circle class="f" cx="457.58" cy="386.27" r="1.5"/><circle class="f" cx="492.53" cy="386.27" r="1.5"/><circle class="f" cx="527.48" cy="386.27" r="1.5"/><circle class="f" cx="3.23" cy="418.21" r="1.5"/><circle class="f" cx="38.18" cy="418.21" r="1.5"/><circle class="f" cx="73.13" cy="418.21" r="1.5"/><circle class="f" cx="108.08" cy="418.21" r="1.5"/><circle class="f" cx="143.03" cy="418.21" r="1.5"/><circle class="f" cx="177.98" cy="418.21" r="1.5"/><circle class="f" cx="212.93" cy="418.21" r="1.5"/><circle class="f" cx="247.88" cy="418.21" r="1.5"/><circle class="f" cx="282.83" cy="418.21" r="1.5"/><circle class="f" cx="317.78" cy="418.21" r="1.5"/><circle class="f" cx="352.73" cy="418.21" r="1.5"/><circle class="f" cx="387.68" cy="418.21" r="1.5"/><circle class="f" cx="422.63" cy="418.21" r="1.5"/><circle class="f" cx="457.58" cy="418.21" r="1.5"/><circle class="f" cx="492.53" cy="418.21" r="1.5"/><circle class="f" cx="527.48" cy="418.21" r="1.5"/><circle class="f" cx="3.23" cy="450.15" r="1.5"/><circle class="f" cx="38.18" cy="450.15" r="1.5"/><circle class="f" cx="73.13" cy="450.15" r="1.5"/><circle class="f" cx="108.08" cy="450.15" r="1.5"/><circle class="f" cx="143.03" cy="450.15" r="1.5"/><circle class="f" cx="177.98" cy="450.15" r="1.5"/><circle class="f" cx="212.93" cy="450.15" r="1.5"/><circle class="f" cx="247.88" cy="450.15" r="1.5"/><circle class="f" cx="282.83" cy="450.15" r="1.5"/><circle class="f" cx="317.78" cy="450.15" r="1.5"/><circle class="f" cx="352.73" cy="450.15" r="1.5"/><circle class="f" cx="387.68" cy="450.15" r="1.5"/><circle class="f" cx="422.63" cy="450.15" r="1.5"/><circle class="f" cx="457.58" cy="450.15" r="1.5"/><circle class="f" cx="492.53" cy="450.15" r="1.5"/><circle class="f" cx="527.48" cy="450.15" r="1.5"/></g></pattern></defs><g id="a"/><g id="b"><g id="c"><rect class="g" width="1400" height="468.6"/></g></g></svg>