<svg xmlns="http://www.w3.org/2000/svg" viewBox="0 0 24 24"><defs><style>.cls-1{fill:#fff;}</style></defs><g id="Layer_2" data-name="Layer 2"><g id="Layer_1-2" data-name="Layer 1"><path class="cls-1" d="M18.78,24h0c-4.64,0-9.9-4.75-11.94-6.79C4.6,15-.54,9.26.05,4.45A5.72,5.72,0,0,1,3,.13.86.86,0,0,1,3.52,0C4.9,0,7.63,3.23,8.74,4.8,10.32,7,10.1,7.67,10,7.91a3.76,3.76,0,0,1-1.2,1.58,2.71,2.71,0,0,0-.89,1.11c0,.12.13.74,1.13,2,1.58,1.94,3.66,3.5,4.33,3.5a2.65,2.65,0,0,0,1.13-.89A3.76,3.76,0,0,1,16.09,14a1,1,0,0,1,.35-.06c1.59,0,6.2,3.78,7.28,5.69A1.35,1.35,0,0,1,23.87,21,5.68,5.68,0,0,1,18.78,24ZM3.56,1.15A4.56,4.56,0,0,0,1.18,4.59C.81,7.58,3.23,12,7.64,16.4c2,1.94,6.93,6.46,11.14,6.46h0a4.52,4.52,0,0,0,4.07-2.42c-.19-1.13-5.2-5.35-6.4-5.37a2.78,2.78,0,0,0-1.09.88,3.72,3.72,0,0,1-1.58,1.21,1.29,1.29,0,0,1-.4.06c-1.51,0-4.4-2.72-5.73-4.6-.74-1-1-1.84-.81-2.4A3.66,3.66,0,0,1,8.05,8.64a2.78,2.78,0,0,0,.88-1.09c0-.41-.93-2.06-2.67-4A8.56,8.56,0,0,0,3.56,1.15Z"/></g></g></svg>