<svg xmlns="http://www.w3.org/2000/svg" viewBox="0 0 124 128.42"><defs><style>.cls-1{fill:#fff;}.cls-2{fill:#241f21;}.cls-3{fill:#ff4a00;}</style></defs><g id="Layer_2" data-name="Layer 2"><g id="Layer_1-2" data-name="Layer 1"><path class="cls-1" d="M114.22,128.33,79.1,123.15a117.36,117.36,0,0,0-34.2,0L9.78,128.33A8.52,8.52,0,0,1,.86,116.21L54.36,4.81a8.47,8.47,0,0,1,15.28,0l53.5,111.4A8.52,8.52,0,0,1,114.22,128.33Z"/><path class="cls-2" d="M57.66,111.73a6.3,6.3,0,0,1-6.45-6.43,6.29,6.29,0,0,1,6.45-6.42,6.57,6.57,0,0,1,1.77.24l.23.06a.2.2,0,0,1,.15.2v1.72a.21.21,0,0,1-.21.21h-.06l-.39-.12a5.58,5.58,0,0,0-1.49-.2,4.33,4.33,0,1,0,0,8.65,5.21,5.21,0,0,0,1.49-.21l.39-.11h.06a.21.21,0,0,1,.21.21v1.72a.22.22,0,0,1-.15.21l-.24.06a6.79,6.79,0,0,1-1.76.23Z"/><path class="cls-2" d="M59.68,111.23v-1.72a.07.07,0,0,0-.1-.06l-.38.11a5.51,5.51,0,0,1-1.54.22,4.48,4.48,0,1,1,0-8.94,5.56,5.56,0,0,1,1.54.21l.38.12a.08.08,0,0,0,.1-.07V99.38a.07.07,0,0,0-.06-.07l-.23-.06A6.62,6.62,0,0,0,57.66,99a6.29,6.29,0,1,0,0,12.57,6.57,6.57,0,0,0,1.73-.23l.24-.06A.08.08,0,0,0,59.68,111.23Z"/><path class="cls-2" d="M66.56,111.78a6.45,6.45,0,1,1,6.23-6.45A6.19,6.19,0,0,1,66.56,111.78Zm0-11a4.57,4.57,0,1,0,4.19,4.55A4.24,4.24,0,0,0,66.56,100.78Z"/><path class="cls-2" d="M66.56,99a6.31,6.31,0,1,0,6.09,6.3A6.06,6.06,0,0,0,66.56,99Zm0,11a4.7,4.7,0,1,1,4.33-4.69A4.37,4.37,0,0,1,66.56,110Z"/><path class="cls-2" d="M50.33,80.18a6.45,6.45,0,1,1,6.23-6.44A6.19,6.19,0,0,1,50.33,80.18Zm0-11a4.57,4.57,0,1,0,4.19,4.55A4.25,4.25,0,0,0,50.33,69.18Z"/><path class="cls-2" d="M50.33,67.43a6.31,6.31,0,1,0,6.09,6.3A6.06,6.06,0,0,0,50.33,67.43Zm0,11a4.7,4.7,0,1,1,4.33-4.69A4.38,4.38,0,0,1,50.33,78.43Z"/><path class="cls-2" d="M77.76,79.92a.21.21,0,0,1-.21-.17l-.43-2.19h-3.9l-.45,2.19a.2.2,0,0,1-.2.17H71a.21.21,0,0,1-.17-.08.23.23,0,0,1,0-.18l3.16-11.91a.2.2,0,0,1,.2-.16h2.16a.2.2,0,0,1,.2.16l3.15,11.91a.19.19,0,0,1,0,.18.21.21,0,0,1-.17.08Zm-1-4-1.55-6.69h-.1L73.57,76Z"/><path class="cls-2" d="M74.05,67.78,70.9,79.69s0,.09.07.09h1.6a.09.09,0,0,0,.07-.06l.46-2.24a.07.07,0,0,1,.07-.06h4a.07.07,0,0,1,.07.06l.45,2.24a.07.07,0,0,0,.07.06h1.66a.07.07,0,0,0,.07-.09L76.35,67.78a.09.09,0,0,0-.07-.06H74.12A.11.11,0,0,0,74.05,67.78ZM73.41,76,75,69.18a.07.07,0,0,1,.07-.06h.21a.07.07,0,0,1,.07.06L76.93,76a.07.07,0,0,1-.07.09H73.48A.08.08,0,0,1,73.41,76Z"/><path class="cls-2" d="M81.89,79.91a.21.21,0,0,1-.22-.21V67.79a.21.21,0,0,1,.22-.21H84.2a6,6,0,0,1,4.14,1.54,6.16,6.16,0,0,1,1.82,4.65c0,4.53-3.21,6.14-6,6.14Zm2.6-1.68c.87,0,3.71-.33,3.71-4.49,0-2.07-1-4.48-3.71-4.48h-.85v9Z"/><path class="cls-2" d="M88.25,69.22a6,6,0,0,0-4-1.5H81.89a.07.07,0,0,0-.07.07V79.7a.07.07,0,0,0,.07.07H84.2c2.68,0,5.82-1.58,5.82-6A6.06,6.06,0,0,0,88.25,69.22Zm-3.76,9.15h-.92a.07.07,0,0,1-.07-.07V69.19a.07.07,0,0,1,.07-.07h.92c2.84,0,3.85,2.49,3.85,4.62C88.34,78,85.39,78.37,84.49,78.37Z"/><path class="cls-2" d="M39.92,79.92a.21.21,0,0,1-.19-.13l-3.9-8.69v8.61a.21.21,0,0,1-.21.21H34.05a.22.22,0,0,1-.21-.21V67.79a.21.21,0,0,1,.21-.21h1.81a.21.21,0,0,1,.19.12L40,76.37V67.79a.24.24,0,0,1,.22-.22h1.57a.22.22,0,0,1,.21.22V79.7a.21.21,0,0,1-.21.21H39.92Z"/><path class="cls-2" d="M40,76.73l-4-9a.06.06,0,0,0-.06-.05h-1.8a.07.07,0,0,0-.07.07V79.7a.07.07,0,0,0,.07.07h1.56a.07.07,0,0,0,.08-.07V70.76a.07.07,0,0,1,.13,0l4,9a.07.07,0,0,0,.07,0h1.8a.07.07,0,0,0,.07-.07V67.79a.07.07,0,0,0-.07-.07H40.16a.07.07,0,0,0-.07.07V76.7A.07.07,0,0,1,40,76.73Z"/><path class="cls-2" d="M66.46,79.92a.21.21,0,0,1-.21-.21V71.19l-2.53,5.67a.21.21,0,0,1-.19.13.23.23,0,0,1-.2-.12l-2.53-5.6v8.44a.21.21,0,0,1-.21.21H59a.21.21,0,0,1-.21-.21V67.8a.21.21,0,0,1,.21-.22h1.8a.22.22,0,0,1,.19.13l2.52,5.43L66,67.71a.24.24,0,0,1,.2-.13H68a.22.22,0,0,1,.21.22V79.71a.21.21,0,0,1-.21.21Z"/><path class="cls-2" d="M63.46,73.34l-2.58-5.57a.06.06,0,0,0-.06,0H59a.07.07,0,0,0-.07.07V79.71a.07.07,0,0,0,.07.07h1.57a.07.07,0,0,0,.07-.07V70.94a.07.07,0,0,1,.13,0l2.67,5.89a.07.07,0,0,0,.13,0l2.67-6a.07.07,0,0,1,.13,0v8.85a.07.07,0,0,0,.07.07H68a.07.07,0,0,0,.07-.07V67.8a.07.07,0,0,0-.07-.07h-1.8a.06.06,0,0,0-.06,0l-2.58,5.57A.07.07,0,0,1,63.46,73.34Z"/><path class="cls-2" d="M68.53,64.34a3.45,3.45,0,0,1-3.09-1.93l-.17-.3a.23.23,0,0,1,0-.18.2.2,0,0,1,.12-.12l1.3-.54.08,0a.22.22,0,0,1,.18.1l.14.21a1.76,1.76,0,0,0,1.46.89A1.45,1.45,0,0,0,70,61c0-1.09-1-1.9-2-2.75s-2.48-2.07-2.48-3.7a3.05,3.05,0,0,1,3.23-3.06,3.22,3.22,0,0,1,2.82,1.64l.2.3a.25.25,0,0,1,0,.17.24.24,0,0,1-.12.14l-1.19.54-.08,0a.23.23,0,0,1-.16-.06L70.05,54a1.63,1.63,0,0,0-1.22-.55,1.23,1.23,0,0,0-1.37,1.24c0,.79.75,1.4,1.7,2.17,1.23,1,2.75,2.21,2.75,4.08A3.23,3.23,0,0,1,68.53,64.34Z"/><path class="cls-2" d="M69.07,57c-1-.79-1.76-1.41-1.76-2.28a1.38,1.38,0,0,1,1.52-1.38,1.75,1.75,0,0,1,1.32.6l.16.15a.08.08,0,0,0,.08,0l1.18-.54a.07.07,0,0,0,0-.1l-.2-.31a3.11,3.11,0,0,0-2.7-1.57,2.91,2.91,0,0,0-3.09,2.92c0,1.55,1.29,2.64,2.43,3.59s2,1.71,2,2.86a1.58,1.58,0,0,1-1.54,1.64,1.92,1.92,0,0,1-1.59-1l-.14-.22s0,0-.08,0l-1.31.54a.07.07,0,0,0,0,.09l.16.31a3.31,3.31,0,0,0,3,1.85A3.09,3.09,0,0,0,71.77,61C71.77,59.16,70.28,58,69.07,57Z"/><path class="cls-2" d="M75.72,64.07a.21.21,0,0,1-.21-.21V53.7H73.62a.21.21,0,0,1-.21-.21V52a.21.21,0,0,1,.21-.21h5.75a.21.21,0,0,1,.22.21v1.54a.21.21,0,0,1-.22.21H77.48V63.86a.21.21,0,0,1-.21.21Z"/><path class="cls-2" d="M75.72,63.93h1.55a.08.08,0,0,0,.07-.07V53.63a.07.07,0,0,1,.07-.07h2a.08.08,0,0,0,.08-.07V52a.08.08,0,0,0-.08-.07H73.62a.07.07,0,0,0-.07.07v1.54a.07.07,0,0,0,.07.07h2a.08.08,0,0,1,.07.07V63.86A.06.06,0,0,0,75.72,63.93Z"/><path class="cls-2" d="M44.63,64.07a.21.21,0,0,1-.21-.21V52a.21.21,0,0,1,.21-.21h1.54a.21.21,0,0,1,.21.21V62.11h16.5a.23.23,0,0,1,.21.13l.75,1.54a.23.23,0,0,1,0,.2.21.21,0,0,1-.17.09Z"/><path class="cls-2" d="M62.88,62.25H46.31a.08.08,0,0,1-.07-.07V51.94a.08.08,0,0,0-.07-.07H44.63a.07.07,0,0,0-.07.07V63.86a.08.08,0,0,0,.07.07h19a.06.06,0,0,0,.05-.09L63,62.3A.08.08,0,0,0,62.88,62.25Z"/><path class="cls-2" d="M60.08,60a.21.21,0,0,1-.17-.08.22.22,0,0,1,0-.19l.11-.39a5.21,5.21,0,0,0,.21-1.49,4.2,4.2,0,1,0-8.38,0,5.58,5.58,0,0,0,.2,1.49l.11.39a.2.2,0,0,1-.2.27H50.26a.21.21,0,0,1-.21-.16L50,59.65a6.9,6.9,0,0,1-.22-1.76,6.23,6.23,0,1,1,12.45,0A7.38,7.38,0,0,1,62,59.65l-.06.24a.22.22,0,0,1-.21.15Z"/><path class="cls-2" d="M50.26,59.9h1.67a.06.06,0,0,0,.06-.09l-.11-.39a5.49,5.49,0,0,1-.21-1.53,4.34,4.34,0,1,1,8.66,0,5.49,5.49,0,0,1-.21,1.53l-.11.39a.07.07,0,0,0,.07.09h1.66a.06.06,0,0,0,.06,0l.06-.23a6.68,6.68,0,0,0,.23-1.73,6.09,6.09,0,1,0-12.17,0,7.13,7.13,0,0,0,.21,1.73l.06.23A.08.08,0,0,0,50.26,59.9Z"/><path class="cls-2" d="M26.6,95.67a.21.21,0,0,1-.22-.21V83.63a.21.21,0,0,1,.22-.21h3a4.59,4.59,0,0,1,2.66.74,2.69,2.69,0,0,1,1.15,2.32A3.16,3.16,0,0,1,32,89.14a3.74,3.74,0,0,1,1.85,3.12c0,2.14-1.42,3.41-3.79,3.41Zm3.15-1.85a1.79,1.79,0,0,0,2-1.78c0-1.17-.77-1.85-2.13-1.85H28.5v3.63ZM29.4,88.6c.87,0,1.92-.29,1.92-1.68,0-.62-.25-1.67-1.92-1.67h-.9V88.6Z"/><path class="cls-2" d="M26.53,95.46V83.63a.07.07,0,0,1,.07-.07h3a4.49,4.49,0,0,1,2.58.71,2.57,2.57,0,0,1,1.08,2.21,2.75,2.75,0,0,1-1.71,2.65h0a3.52,3.52,0,0,1,2.11,3.13c0,2-1.37,3.27-3.65,3.27H26.6A.07.07,0,0,1,26.53,95.46Zm1.83-1.56a.07.07,0,0,0,.07.07h1.32A1.93,1.93,0,0,0,31.85,92c0-1.24-.85-2-2.27-2H28.43a.07.07,0,0,0-.07.07Zm0-5.23a.07.07,0,0,0,.07.07h1c.77,0,2.06-.24,2.06-1.82a1.81,1.81,0,0,0-2.06-1.82h-1a.08.08,0,0,0-.07.08Z"/><path class="cls-2" d="M42.76,95.67a.21.21,0,0,1-.19-.11l-2.53-5H39v4.9a.21.21,0,0,1-.21.21H37.05a.21.21,0,0,1-.21-.21V83.63a.21.21,0,0,1,.21-.21h3.3c3.78,0,4.07,2.85,4.07,3.73a3.33,3.33,0,0,1-2.18,3.14l-.35.13,2.89,4.93a.22.22,0,0,1,0,.21.21.21,0,0,1-.19.11H42.76ZM40.23,89a1.87,1.87,0,1,0,0-3.72H39V89Z"/><path class="cls-2" d="M42.7,95.49l-2.55-5a.1.1,0,0,0-.07,0h-1.2a.07.07,0,0,0-.07.07v5a.07.07,0,0,1-.07.07H37.05a.07.07,0,0,1-.07-.07V83.62a.07.07,0,0,1,.07-.07h3.3c3.65,0,3.93,2.75,3.93,3.59a3.18,3.18,0,0,1-2.09,3l-.43.17a.07.07,0,0,0,0,.1l2.92,5a.07.07,0,0,1-.06.11H42.76A.05.05,0,0,1,42.7,95.49Zm-3.89-6.44a.07.07,0,0,0,.07.07h1.35a2,2,0,1,0,.05-4h-1.4a.07.07,0,0,0-.07.07Z"/><path class="cls-2" d="M48.07,95.67a.21.21,0,0,1-.21-.21V83.63a.21.21,0,0,1,.21-.21h5.36a.21.21,0,0,1,.21.21V85a.21.21,0,0,1-.21.21H50v3.32h2.66a.21.21,0,0,1,.21.21v1.36a.21.21,0,0,1-.21.21H50v3.59h3.45a.21.21,0,0,1,.21.21v1.36a.21.21,0,0,1-.21.21Z"/><path class="cls-2" d="M48,95.46V83.63a.07.07,0,0,1,.07-.07h5.36a.07.07,0,0,1,.07.07V85a.07.07,0,0,1-.07.07H49.9a.07.07,0,0,0-.07.07v3.46a.07.07,0,0,0,.07.07h2.74a.07.07,0,0,1,.07.07v1.36a.07.07,0,0,1-.07.07H49.9a.07.07,0,0,0-.07.07V94a.07.07,0,0,0,.07.07h3.53a.07.07,0,0,1,.07.07v1.37a.07.07,0,0,1-.07.07H48.07A.07.07,0,0,1,48,95.46Z"/><path class="cls-2" d="M64.15,95.68a.23.23,0,0,1-.22-.18l-1.45-8L61,95.5a.23.23,0,0,1-.22.18H58.65a.21.21,0,0,1-.21-.17L56,83.67a.18.18,0,0,1,0-.17.21.21,0,0,1,.16-.08H57.9a.23.23,0,0,1,.22.18l1.7,9.47L61.6,83.6a.21.21,0,0,1,.21-.18h1.34a.22.22,0,0,1,.22.18l1.77,9.48,1.7-9.48a.23.23,0,0,1,.22-.18h1.66a.21.21,0,0,1,.16.08.22.22,0,0,1,.05.17L66.52,95.51a.22.22,0,0,1-.21.17Z"/><path class="cls-2" d="M60.89,95.47,62.44,87s.08,0,.08,0l1.55,8.52a.07.07,0,0,0,.07.06h2.17a.08.08,0,0,0,.07,0l2.4-11.84a.07.07,0,0,0-.07-.08H67.06a.09.09,0,0,0-.08.06l-1.8,10a0,0,0,0,1-.09,0l-1.86-10a.09.09,0,0,0-.08-.06H61.81s-.07,0-.07.06l-1.88,10a0,0,0,0,1-.09,0L58,83.62s0-.06-.07-.06H56.25a.07.07,0,0,0-.07.08l2.4,11.84a.08.08,0,0,0,.07,0h2.16S60.88,95.51,60.89,95.47Z"/><path class="cls-2" d="M71.93,95.67a.21.21,0,0,1-.21-.21V83.63a.21.21,0,0,1,.21-.21h1.71a.21.21,0,0,1,.21.21V95.46a.21.21,0,0,1-.21.21Z"/><path class="cls-2" d="M71.86,95.46V83.63a.07.07,0,0,1,.07-.07h1.71a.07.07,0,0,1,.07.07V95.46a.07.07,0,0,1-.07.07H71.93A.07.07,0,0,1,71.86,95.46Z"/><path class="cls-2" d="M93.05,95.93A4,4,0,0,1,89.47,94a8.55,8.55,0,0,1-1.06-4.43c0-4,1.72-6.45,4.6-6.45a3.77,3.77,0,0,1,3.88,3,.22.22,0,0,1,0,.18.21.21,0,0,1-.17.08H94.91a.21.21,0,0,1-.19-.13A1.86,1.86,0,0,0,93,85c-1.6,0-2.45,1.6-2.45,4.62,0,2.85.93,4.49,2.54,4.49s2.5-1.21,2.5-3.49v-.31H93.42a.21.21,0,0,1-.21-.22V88.71a.21.21,0,0,1,.21-.21h4a.21.21,0,0,1,.21.21v1.87C97.62,93.24,96.05,95.93,93.05,95.93Z"/><path class="cls-2" d="M93.05,95.79a3.86,3.86,0,0,1-3.46-1.86,8.42,8.42,0,0,1-1-4.35c0-4,1.67-6.31,4.46-6.31a3.67,3.67,0,0,1,3,1.28,3.55,3.55,0,0,1,.78,1.57.07.07,0,0,1-.07.08H94.91a.07.07,0,0,1-.06,0A2,2,0,0,0,93,84.84c-1.18,0-2.59.82-2.59,4.76,0,2.94,1,4.63,2.68,4.63,1.21,0,2.64-.63,2.64-3.63v-.38a.07.07,0,0,0-.07-.07H93.42a.07.07,0,0,1-.07-.07V88.72a.07.07,0,0,1,.07-.07h4a.07.07,0,0,1,.07.07v1.86C97.48,93.17,96,95.79,93.05,95.79Z"/><path class="cls-2" d="M83.35,95.66a.21.21,0,0,1-.19-.12l-3.87-8.62v8.53a.21.21,0,0,1-.21.21H77.52a.21.21,0,0,1-.21-.21V83.63a.21.21,0,0,1,.21-.21h1.79a.24.24,0,0,1,.2.12l3.87,8.6V83.63a.2.2,0,0,1,.06-.15.21.21,0,0,1,.15-.07h1.56a.21.21,0,0,1,.21.21V95.45a.21.21,0,0,1-.21.21Z"/><path class="cls-2" d="M83.38,92.51l-4-8.91a.07.07,0,0,0-.07,0H77.53a.07.07,0,0,0-.07.07V95.46a.07.07,0,0,0,.07.07h1.56a.07.07,0,0,0,.07-.07V86.59a.07.07,0,0,1,.13,0l4,8.92a.06.06,0,0,0,.06,0h1.79a.07.07,0,0,0,.07-.07V83.63a.07.07,0,0,0-.07-.07H83.59a.07.07,0,0,0-.08.07v8.84A.08.08,0,0,1,83.38,92.51Z"/><path class="cls-3" d="M62.45,37.38l.17,2.84H61.38l.18-2.84a6.46,6.46,0,0,0-6.85-6.84l-2.84.17V29.47l2.84.17a6.46,6.46,0,0,0,6.85-6.84L61.38,20h1.24l-.17,2.84a6.45,6.45,0,0,0,6.84,6.84l2.85-.17v1.24l-2.85-.17A6.46,6.46,0,0,0,62.45,37.38Z"/></g></g></svg>