<svg xmlns="http://www.w3.org/2000/svg" viewBox="0 0 47.76 44"><defs><style>.cls-1{fill:none;stroke:#c3c3c6;stroke-miterlimit:10;stroke-width:2px;}.cls-2{fill:#fff;}</style></defs><g id="Layer_2" data-name="Layer 2"><g id="Layer_1-2" data-name="Layer 1"><rect class="cls-1" x="1" y="1" width="45.76" height="42" rx="2"/><path class="cls-2" d="M35.09,13.18V13a.06.06,0,0,0,0,0,.8.8,0,0,0-.08-.16h0a.49.49,0,0,0-.14-.11h0a.29.29,0,0,0-.13,0h-.05l-.15,0h0L12.67,19.83a.5.5,0,0,0-.34.42.51.51,0,0,0,.24.48l7.8,4.6,3.44,8.06a.51.51,0,0,0,.42.3h0a.52.52,0,0,0,.46-.27L35.05,13.35h0A.47.47,0,0,0,35.09,13.18Zm-2.71,1.19-11.66,10-6.7-4ZM24.31,32l-2.95-6.91L33,15.15Z"/></g></g></svg>