<?xml version="1.0" encoding="utf-8"?>
<!-- Generator: Adobe Illustrator 26.2.1, SVG Export Plug-In . SVG Version: 6.00 Build 0)  -->
<svg version="1.1" id="Layer_1" xmlns="http://www.w3.org/2000/svg" xmlns:xlink="http://www.w3.org/1999/xlink" x="0px" y="0px"
	 viewBox="0 0 44 42.8" style="enable-background:new 0 0 44 42.8;" xml:space="preserve">
<style type="text/css">
	.st0{fill:#FF4A00;}
	.st1{fill:#241F21;}
</style>
<g id="Layer_2_00000182511499345163227350000017330519272510816440_">
	<g id="Layer_1-2">
		<path class="st0" d="M22,36.5c6.6,0,13.1-1.2,19.2-3.7H2.8C8.9,35.2,15.4,36.5,22,36.5z"/>
		<path class="st0" d="M22,42.8c4.7,0,9.3-1.3,13.3-3.5H8.7C12.7,41.6,17.3,42.8,22,42.8z"/>
		<path class="st0" d="M22,0C9.8,0,0,9.9,0,22c0,2.5,0.4,5.1,1.3,7.4h41.4c0.9-2.4,1.3-4.9,1.3-7.5C44,9.8,34.1,0,22,0z M29.3,22.4
			l0.3,1.7c-1,0-1.7-0.8-1.8-1.8l-1,0.7c-0.7-0.6,0.1-1.4,0.1-1.4c-2.1,0-4-0.9-5.2-2.6c-1.4-0.4-2.9-0.9-2.9-0.9L15,19.3l-1.2-3H19
			c-1.2-0.6-1.9-1.7-1.9-3c-0.8,0.2-1.6-0.1-2.1-0.7l1.7-0.7c-2.5-0.1-2.5-1.8-2.5-1.8l2.2,0.3C13.9,9.2,15,7.4,15,7.4l9.4,8.5
			c-1.4,0.3-2.8,0.4-4.2,0.5h4.9c0.8,0,1.8,0.2,1.8,0.6h0.3c0.8,0,0.9,0.2,0.5,1.2c0,0.1-0.1,0.2-0.2,0.2S27.6,18,27.6,18h-0.7
			c-0.9,0.7-2,1.2-3.2,1.3c1.3,0,2.5-0.3,3.6-0.8l4.9,4.4C31.2,24,29.3,22.4,29.3,22.4z"/>
	</g>
</g>
<path class="st1" d="M29.3,22.4l0.3,1.7c-1,0-1.7-0.8-1.8-1.8l-1,0.7c-0.7-0.6,0.1-1.4,0.1-1.4c-2.1,0-4-0.9-5.2-2.6
	c-1.4-0.4-2.9-0.9-2.9-0.9L15,19.3l-1.2-3H19c-1.2-0.6-1.9-1.7-1.9-3c-0.8,0.2-1.6-0.1-2.1-0.7l1.7-0.7c-2.5-0.1-2.5-1.8-2.5-1.8
	l2.2,0.3C13.9,9.2,15,7.4,15,7.4l9.4,8.5c-1.4,0.3-2.8,0.4-4.2,0.5h4.9c0.8,0,1.8,0.2,1.8,0.6h0.3c0.8,0,0.9,0.2,0.5,1.2
	c0,0.1-0.1,0.2-0.2,0.2S27.6,18,27.6,18h-0.7c-0.9,0.7-2,1.2-3.2,1.3c1.3,0,2.5-0.3,3.6-0.8l4.9,4.4C31.2,24,29.3,22.4,29.3,22.4z"
	/>
</svg>
