<?xml version="1.0" encoding="utf-8"?>
<!-- Generator: Adobe Illustrator 26.2.1, SVG Export Plug-In . SVG Version: 6.00 Build 0)  -->
<svg version="1.1" id="Layer_1" xmlns="http://www.w3.org/2000/svg" xmlns:xlink="http://www.w3.org/1999/xlink" x="0px" y="0px"
	 viewBox="0 0 64 64" style="enable-background:new 0 0 64 64;" xml:space="preserve">
<style type="text/css">
	.st0{fill:#241F21;}
	.st1{opacity:0;fill:none;stroke:#000000;stroke-width:0.25;stroke-miterlimit:10;}
</style>
<g id="Layer_2_00000182511499345163227350000017330519272510816440_">
	<g id="Layer_1-2">
		<path class="st0" d="M32,53.9c9.5,0,19-1.8,27.9-5.3H4.1C13,52.1,22.5,53.9,32,53.9z"/>
		<path class="st0" d="M32,63.2c6.8,0,13.5-1.8,19.4-5.1H12.6C18.5,61.3,25.2,63.1,32,63.2z"/>
		<path class="st0" d="M32,0.8c-17.7,0-32,14.3-32,32c0,3.7,0.6,7.4,1.9,10.8h60.2c1.3-3.5,1.9-7.2,1.9-10.9
			C64,15.2,49.7,0.8,32,0.8z M42.6,33.4l0.4,2.4c-1.4-0.1-2.5-1.2-2.6-2.6l-1.5,1c-1-0.9,0.1-2,0.1-2c-3,0.1-5.8-1.4-7.5-3.8
			c-2.1-0.6-4.2-1.4-4.2-1.4L21.9,29l-1.8-4.4h7.6c-1.7-0.8-2.7-2.5-2.8-4.4c-1.1,0.3-2.3-0.1-3-1l2.5-1c-3.7-0.2-3.7-2.6-3.7-2.6
			l3.2,0.5c-3.6-1.9-2-4.5-2-4.5l13.7,12.3c-2,0.4-4,0.6-6.1,0.7h7.2c1.2,0,2.7,0.2,2.7,0.9h0.5c1.1,0,1.4,0.3,0.8,1.7
			c0,0.1-0.2,0.3-0.3,0.3S40.2,27,40.2,27h-1c-1.3,1-2.9,1.7-4.6,1.9c1.8,0,3.6-0.4,5.2-1.2l7.1,6.4C45.4,35.8,42.6,33.4,42.6,33.4z
			"/>
	</g>
</g>
<rect class="st1" width="64" height="64"/>
</svg>
