<svg xmlns="http://www.w3.org/2000/svg" viewBox="0 0 44 42.85"><defs><style>.cls-1{fill:#fff;}.cls-2{fill:#241f21;}</style></defs><g id="Layer_2" data-name="Layer 2"><g id="Layer_1-2" data-name="Layer 1"><path class="cls-1" d="M44,22A22,22,0,1,0,1.3,29.46H42.7A22,22,0,0,0,44,22Z"/><path class="cls-1" d="M22,36.49a52.21,52.21,0,0,0,19.15-3.65H2.85A52.17,52.17,0,0,0,22,36.49Z"/><path class="cls-1" d="M22,42.85a27.54,27.54,0,0,0,13.32-3.54H8.68A27.51,27.51,0,0,0,22,42.85Z"/><path class="cls-2" d="M27.32,18.47a7.51,7.51,0,0,1-3.6.85A6.58,6.58,0,0,0,26.9,18h.72s0,.38.07.38.15-.14.18-.21c.41-.91.22-1.15-.53-1.15H27c0-.48-1-.64-1.84-.64H20.23a35.93,35.93,0,0,0,4.16-.51L15,7.41s-1.09,1.8,1.38,3.08l-2.21-.33s0,1.66,2.52,1.8L15,12.65a2.12,2.12,0,0,0,2.09.69,3.36,3.36,0,0,0,1.9,3h-5.2l1.25,3L18.85,18s1.46.55,2.88.93h0a6.09,6.09,0,0,0,5.16,2.64s-.8.72-.08,1.36l1-.72a1.85,1.85,0,0,0,1.76,1.82l-.3-1.66s1.94,1.66,2.93.49Z"/></g></g></svg>