<svg xmlns="http://www.w3.org/2000/svg" viewBox="0 0 96 96"><defs><style>.cls-1{fill:#fff;}.cls-2{fill:#241f21;}</style></defs><g id="Layer_2" data-name="Layer 2"><g id="Layer_1-2" data-name="Layer 1"><circle class="cls-1" cx="48" cy="48" r="48"/><path class="cls-2" d="M45.53,67,45.28,67a6.86,6.86,0,0,0-1.87-.25,6.64,6.64,0,0,0-6.8,6.78,6.65,6.65,0,0,0,6.8,6.78A7.26,7.26,0,0,0,45.28,80l.24-.07a.21.21,0,0,0,.17-.21V77.92a.23.23,0,0,0-.23-.23H45.4l-.42.12a5.37,5.37,0,0,1-1.57.22,4.58,4.58,0,1,1,0-9.14,5.73,5.73,0,0,1,1.57.22l.42.12h.06a.23.23,0,0,0,.23-.23v-1.8A.24.24,0,0,0,45.53,67Z"/><path class="cls-2" d="M52.81,66.69a6.81,6.81,0,1,0,6.57,6.81A6.54,6.54,0,0,0,52.81,66.69Zm0,11.61a4.82,4.82,0,1,1,4.42-4.8C57.23,76.28,55.38,78.3,52.81,78.3Z"/><path class="cls-2" d="M42.25,40.15a6.57,6.57,0,1,0-13.14,0,6.57,6.57,0,1,0,13.14,0Zm-6.57-4.81c2.56,0,4.42,2,4.42,4.81a4.44,4.44,0,1,1-8.84,0C31.26,37.36,33.12,35.34,35.68,35.34Z"/><path class="cls-2" d="M64.64,46.68H66.4a.24.24,0,0,0,.18-.09.24.24,0,0,0,0-.2L63.28,33.81a.21.21,0,0,0-.21-.16H60.79a.21.21,0,0,0-.21.16L57.25,46.39a.21.21,0,0,0,0,.2.2.2,0,0,0,.17.09h1.69a.23.23,0,0,0,.22-.18l.48-2.32H64l.46,2.31A.22.22,0,0,0,64.64,46.68ZM61.87,35.42H62l1.63,7.06H60.22Z"/><path class="cls-2" d="M69,46.67h2.44c2.91,0,6.3-1.69,6.3-6.48a6.48,6.48,0,0,0-1.92-4.91,6.34,6.34,0,0,0-4.37-1.62H69a.23.23,0,0,0-.23.23V46.44A.23.23,0,0,0,69,46.67Zm2.75-1.79h-.9V35.42h.9c2.89,0,3.92,2.55,3.92,4.73C75.66,44.54,72.66,44.88,71.74,44.88Z"/><path class="cls-2" d="M24.69,46.67H26.6a.22.22,0,0,0,.22-.23V33.86a.22.22,0,0,0-.22-.22H24.94a.21.21,0,0,0-.22.22v9.06l-4.11-9.15a.24.24,0,0,0-.21-.14H18.5a.23.23,0,0,0-.23.23V46.44a.23.23,0,0,0,.23.23h1.66a.23.23,0,0,0,.22-.23V37.36l4.11,9.17A.2.2,0,0,0,24.69,46.67Z"/><path class="cls-2" d="M52.71,46.68h1.66a.22.22,0,0,0,.22-.23V33.87a.22.22,0,0,0-.22-.22h-1.9a.24.24,0,0,0-.21.12l-2.65,5.74L47,33.77a.21.21,0,0,0-.2-.12h-1.9a.22.22,0,0,0-.23.22V46.45a.23.23,0,0,0,.23.23H46.5a.23.23,0,0,0,.23-.23V37.54l2.68,5.91a.21.21,0,0,0,.2.13.23.23,0,0,0,.21-.13l2.67-6v9A.22.22,0,0,0,52.71,46.68Z"/><path class="cls-2" d="M51.63,28.19a3.62,3.62,0,0,0,3.27,2,3.4,3.4,0,0,0,3.56-3.56c0-2-1.6-3.27-2.9-4.32-1-.8-1.8-1.45-1.8-2.29a1.3,1.3,0,0,1,1.45-1.31,1.72,1.72,0,0,1,1.29.59l.17.16a.2.2,0,0,0,.16.07l.09,0L58.18,19a.24.24,0,0,0,.12-.14.21.21,0,0,0,0-.19l-.21-.31a3.4,3.4,0,0,0-3-1.73,3.22,3.22,0,0,0-3.41,3.23c0,1.71,1.39,2.87,2.62,3.9s2.1,1.76,2.1,2.91a1.51,1.51,0,0,1-1.48,1.57,1.86,1.86,0,0,1-1.55-.93l-.15-.23A.22.22,0,0,0,53,27a.15.15,0,0,0-.09,0l-1.38.56a.24.24,0,0,0-.12.14.23.23,0,0,0,0,.18Z"/><path class="cls-2" d="M60.26,19h2V29.72a.22.22,0,0,0,.23.22h1.62a.22.22,0,0,0,.23-.22V19h2a.22.22,0,0,0,.22-.22V17.14a.22.22,0,0,0-.22-.22H60.26a.22.22,0,0,0-.22.22v1.63A.22.22,0,0,0,60.26,19Z"/><path class="cls-2" d="M29.66,30H49.75a.21.21,0,0,0,.19-.31L49.15,28a.25.25,0,0,0-.22-.14H31.51V17.14a.22.22,0,0,0-.22-.22H29.66a.22.22,0,0,0-.22.22V29.72A.23.23,0,0,0,29.66,30Z"/><path class="cls-2" d="M35.39,25.52a.23.23,0,0,0,.22.17h1.75a.2.2,0,0,0,.18-.09.21.21,0,0,0,0-.2L37.46,25a5.83,5.83,0,0,1-.21-1.57c0-2.79,1.86-4.81,4.42-4.81s4.42,2,4.42,4.81A5.73,5.73,0,0,1,45.87,25l-.12.41a.24.24,0,0,0,0,.2.21.21,0,0,0,.18.09h1.75a.23.23,0,0,0,.22-.17l.06-.24a7.24,7.24,0,0,0,.24-1.86,6.57,6.57,0,1,0-13.14,0,7.24,7.24,0,0,0,.23,1.86Z"/><path class="cls-2" d="M16.3,56.41a3.31,3.31,0,0,0,1.54-2.81,2.83,2.83,0,0,0-1.21-2.45,4.9,4.9,0,0,0-2.8-.78H10.62a.22.22,0,0,0-.23.22v12.5a.22.22,0,0,0,.23.22h3.64c2.5,0,4-1.34,4-3.6A3.93,3.93,0,0,0,16.3,56.41Zm-2.72-.56h-.94V52.31h.95c1.76,0,2,1.1,2,1.76C15.61,55.54,14.51,55.85,13.58,55.85Zm-.94,1.67h1.14c1.42,0,2.24.71,2.24,1.95A1.89,1.89,0,0,1,14,61.35H12.64Z"/><path class="cls-2" d="M26.77,57.77l.36-.14a3.51,3.51,0,0,0,2.31-3.31c0-.93-.31-3.94-4.3-3.94H21.66a.22.22,0,0,0-.23.22V63.08a.23.23,0,0,0,.23.23h1.78a.23.23,0,0,0,.23-.23V57.91h1.15l2.67,5.28a.23.23,0,0,0,.2.12h1.93a.23.23,0,0,0,.2-.11.24.24,0,0,0,0-.23Zm-3.11-5.45h1.4a2,2,0,1,1,0,3.93H23.66Z"/><path class="cls-2" d="M39.17,63.08V61.64a.22.22,0,0,0-.22-.22H35.3V57.63h2.81a.22.22,0,0,0,.23-.22V56a.23.23,0,0,0-.23-.23H35.3v-3.5H39a.22.22,0,0,0,.22-.22V50.58a.23.23,0,0,0-.22-.23H33.29a.23.23,0,0,0-.22.23v12.5a.22.22,0,0,0,.22.22H39A.21.21,0,0,0,39.17,63.08Z"/><path class="cls-2" d="M43.67,50.37H41.92a.23.23,0,0,0-.17.08.25.25,0,0,0,0,.19l2.54,12.49a.23.23,0,0,0,.22.18h2.28a.24.24,0,0,0,.23-.19l1.53-8.44L50,63.12a.24.24,0,0,0,.23.19h2.28a.23.23,0,0,0,.22-.18L55.3,50.64a.25.25,0,0,0,0-.19.2.2,0,0,0-.17-.08H53.33a.24.24,0,0,0-.23.19l-1.8,10-1.87-10a.23.23,0,0,0-.23-.19H47.79a.24.24,0,0,0-.23.19l-1.88,10-1.79-10A.21.21,0,0,0,43.67,50.37Z"/><path class="cls-2" d="M60.29,50.37H58.48a.22.22,0,0,0-.22.22v12.5a.22.22,0,0,0,.22.22h1.81a.22.22,0,0,0,.22-.22V50.59A.22.22,0,0,0,60.29,50.37Z"/><path class="cls-2" d="M85.37,55.74h-4.2A.22.22,0,0,0,81,56V57.4a.23.23,0,0,0,.22.23h2.26V58c0,2.41-.92,3.68-2.64,3.68s-2.68-1.73-2.68-4.74c0-3.2.9-4.88,2.59-4.88a2,2,0,0,1,1.84,1.3.23.23,0,0,0,.21.14h1.86a.23.23,0,0,0,.18-.09.21.21,0,0,0,0-.19A4.17,4.17,0,0,0,84,51.47a4,4,0,0,0-3.24-1.41c-3,0-4.87,2.55-4.87,6.82A9,9,0,0,0,77,61.55a4.19,4.19,0,0,0,3.77,2c3.17,0,4.82-2.84,4.82-5.65V56A.21.21,0,0,0,85.37,55.74Z"/><path class="cls-2" d="M72.43,50.37H70.78a.21.21,0,0,0-.22.22v9L66.48,50.5a.21.21,0,0,0-.2-.13H64.39a.22.22,0,0,0-.22.22V63.08a.22.22,0,0,0,.22.22H66a.22.22,0,0,0,.22-.22v-9l4.08,9.11a.23.23,0,0,0,.21.13h1.89a.22.22,0,0,0,.22-.22V50.59A.22.22,0,0,0,72.43,50.37Z"/></g></g></svg>